<svg width="164" height="52" viewBox="0 0 164 52" fill="none" xmlns="http://www.w3.org/2000/svg">
<path fill-rule="evenodd" clip-rule="evenodd" d="M16.8337 17.2571C16.6625 16.9143 16.8907 16.4 16.8907 16.4C17.1761 16.2857 17.6326 16.3428 17.8038 16.6857C17.975 17.0857 17.8038 17.3714 17.3473 17.6571C17.3473 17.6571 17.119 17.5429 16.8337 17.2571Z" fill="#111111"/>
<path fill-rule="evenodd" clip-rule="evenodd" d="M29.5017 38.9714L26.8768 41.0857V19.4286H29.5017V38.9714Z" fill="#111111"/>
<path fill-rule="evenodd" clip-rule="evenodd" d="M31.2136 37.0857V19.4286H33.3821V32.9143C32.9826 34.1714 32.2979 35.5429 31.2136 37.0857Z" fill="#111111"/>
<path fill-rule="evenodd" clip-rule="evenodd" d="M22.5971 39.1429L25.222 41.2571V19.4286H22.5971V39.1429Z" fill="#111111"/>
<path fill-rule="evenodd" clip-rule="evenodd" d="M21.1134 37.7143V19.4286H18.7738V33.8286C18.8309 34.8 20.5428 37.2571 21.1134 37.7143Z" fill="#111111"/>
<path d="M25.9638 44.0571C16.0348 44.0571 7.9318 35.9429 7.9318 26C7.9318 16 15.9777 7.94286 25.9638 7.94286C35.8928 7.94286 43.9958 16.0571 43.9958 26C43.9958 35.9429 35.8928 44.0571 25.9638 44.0571V44.6857C36.2352 44.6857 44.6235 36.2857 44.6235 26C44.6235 15.7143 36.2352 7.31429 25.9638 7.31429C15.6924 7.31429 7.30411 15.7143 7.30411 26C7.30411 36.2857 15.6924 44.6857 25.9638 44.6857V44.0571Z" fill="#111111"/>
<path d="M25.9638 51.1429C12.0974 51.1429 0.85595 39.8857 0.85595 26C0.85595 12.1143 12.0974 0.857143 25.9638 0.857143C39.8302 0.857143 51.0717 12.1143 51.0717 26C51.0717 39.8286 39.7731 51.1429 25.9638 51.1429V51.9429C40.2867 51.9429 51.9276 40.2857 51.9276 25.9429C51.8706 11.6571 40.2296 0 25.9638 0C11.6409 0 0 11.6571 0 26C0 40.3429 11.6409 52 25.9638 52V51.1429Z" fill="#111111"/>
<path fill-rule="evenodd" clip-rule="evenodd" d="M4.56506 33.3143C5.1357 33.8857 5.42101 34.2286 5.70633 34.9714C5.99165 35.6 6.04871 36.0571 6.10577 36.7429L7.36117 36.1714C6.90466 35.6571 6.61934 35.3143 6.33403 34.6857C5.99165 33.9429 5.87752 33.4857 5.82046 32.7429L4.56506 33.3143Z" fill="#111111"/>
<path fill-rule="evenodd" clip-rule="evenodd" d="M4.45094 36.1714C5.02157 35.6 5.36395 35.3143 6.10577 35.0286C6.73347 34.7429 7.18998 34.6857 7.87474 34.6286L7.30411 33.3714C6.79053 33.8286 6.44815 34.1143 5.82046 34.4C5.1357 34.6857 4.67919 34.8 3.8803 34.8571L4.45094 36.1714Z" fill="#111111"/>
<path fill-rule="evenodd" clip-rule="evenodd" d="M47.3055 33.3143C46.7349 33.8857 46.4495 34.2286 46.1642 34.9714C45.8789 35.6 45.8218 36.0571 45.7648 36.7429L44.4523 36.1714C44.9088 35.6571 45.1942 35.3143 45.4795 34.6857C45.7648 33.9429 45.936 33.4857 45.936 32.7429L47.3055 33.3143Z" fill="#111111"/>
<path fill-rule="evenodd" clip-rule="evenodd" d="M47.3626 36.1714C46.7919 35.6 46.4496 35.3143 45.7077 35.0286C45.08 34.7429 44.6235 34.6857 43.9388 34.6286L44.5094 33.3714C45.023 33.8286 45.3654 34.1143 45.9931 34.4C46.7349 34.7429 47.1914 34.8 47.9332 34.9143L47.3626 36.1714Z" fill="#111111"/>
<path fill-rule="evenodd" clip-rule="evenodd" d="M15.8065 44C16.1489 43.8286 16.3201 44 16.3772 43.8857C16.4342 43.8286 16.3772 43.7714 16.263 43.7143C16.1489 43.6 15.9777 43.5429 15.8636 43.4286C15.7495 43.3143 15.6353 43.2 15.5212 43.0857C15.4642 43.0286 15.35 42.9143 15.293 43.0286C15.1788 43.2 15.7495 43.3714 15.4071 43.8286C15.35 43.8857 15.2359 44.0572 14.8365 44.2857L13.1246 45.2572C13.0675 45.2572 13.0104 45.3143 13.0104 45.3143C12.9534 45.3143 13.0104 45.2 13.0104 45.1429L13.6381 43.2C13.7523 42.8 13.8664 42.5714 13.9805 42.4C14.1517 42.2286 14.3229 42.4572 14.437 42.3429C14.4941 42.2857 14.4941 42.2286 14.3229 42.1143C14.2658 42.0571 14.0946 42 13.8093 41.7714C13.6381 41.6571 13.524 41.4857 13.3528 41.3714C13.2958 41.3143 13.1816 41.1429 13.0675 41.2571C13.0675 41.3143 13.0675 41.3714 13.0675 41.3714C13.2387 41.5429 13.2387 41.6572 13.1816 41.8857L12.1545 45.4857C12.0974 45.7714 12.0974 45.8286 12.1545 45.8857C12.2115 45.9429 12.2686 45.9429 12.3827 45.8286L15.8065 44Z" fill="#111111"/>
<path fill-rule="evenodd" clip-rule="evenodd" d="M20.3145 45.8286C20.4287 45.3714 20.7711 45.7143 20.8281 45.4857C20.8281 45.4286 20.8281 45.4286 20.714 45.3714C20.6569 45.3714 20.5428 45.3714 20.0863 45.2571C19.858 45.2 19.5727 45.0857 19.3445 45.0286C19.2303 45.0286 19.1733 45.0286 19.1162 45.0857C19.0592 45.3143 19.7439 45.3143 19.6298 45.7714L18.945 48.5143C18.7738 49.2 18.4315 48.8 18.3744 49.0857C18.3744 49.1429 18.3744 49.1429 18.4885 49.2C18.7738 49.2572 19.0021 49.3143 19.1733 49.3714C19.4586 49.4286 19.7439 49.5429 20.5999 49.7714C21.0564 49.8857 21.5129 49.4857 21.627 49.0286C21.627 48.9143 21.627 48.9143 21.5699 48.9143C21.3417 48.8572 21.2276 49.6572 19.858 49.3143C19.4586 49.2 19.5157 49.0286 19.6298 48.6286L20.3145 45.8286Z" fill="#111111"/>
<path fill-rule="evenodd" clip-rule="evenodd" d="M23.5672 46.5143C23.6242 46.1143 23.6242 46.1143 24.309 46.1714C25.3932 46.2286 24.9367 46.9143 25.1649 46.9143C25.2791 46.9143 25.2791 46.7429 25.2791 46.6286V46.0572C25.2791 46 25.222 45.9429 25.1649 45.9429C24.6514 45.8857 24.2519 45.8857 23.8525 45.8857C22.9965 45.8286 22.5971 45.7714 22.3688 45.7714C22.3118 45.7714 22.2547 45.8286 22.2547 45.8857C22.2547 46.1143 22.8824 46 22.8253 46.5143L22.6541 49.3143C22.5971 50.0571 22.1976 49.7143 22.1976 49.9429C22.1976 50 22.2547 50 22.3118 50C22.5971 50 22.8824 50 23.0536 50C23.3389 50 23.6813 50.0571 24.5372 50.1143C24.9937 50.1714 25.3932 49.6571 25.3932 49.2C25.3932 49.0857 25.3361 49.0857 25.3361 49.0857C25.1079 49.0857 25.1649 49.8286 23.7383 49.7714C23.3389 49.7143 23.396 49.5429 23.396 49.1429L23.453 48.4C23.453 48.0571 23.453 48 23.7383 48H24.1378C24.7084 48.0572 24.5372 48.6857 24.7084 48.6857C24.8226 48.6857 24.8226 48.4571 24.8226 48.4L24.8796 47.3143C24.8796 47.1429 24.8226 47.1429 24.7655 47.1429C24.6514 47.1429 24.5943 47.6572 24.1378 47.6572H23.7954C23.5672 47.6572 23.5672 47.6 23.5672 47.3143V46.5143Z" fill="#111111"/>
<path fill-rule="evenodd" clip-rule="evenodd" d="M26.5915 49.4286C26.6486 50.0571 26.0779 50 26.135 50.2286C26.135 50.3429 26.2491 50.2857 26.3062 50.2857C26.4774 50.2857 26.5915 50.2286 26.7627 50.2286C26.9339 50.2286 27.1621 50.2286 27.4475 50.1714C27.5045 50.1714 27.6757 50.1714 27.6757 50.0571C27.6757 49.7714 26.991 50.2286 26.8768 49.0857L26.7056 47.0857C26.7056 47.0286 26.7056 46.9714 26.7627 46.9714C26.7627 46.9714 26.8198 46.9714 26.8768 47.0286L29.8441 49.8857C29.9012 49.9429 29.9012 49.9429 30.0153 49.9429C30.0724 49.9429 30.0724 49.8857 30.0724 49.7714L29.7871 46.4571C29.73 45.8286 30.2436 45.9428 30.1865 45.7714C30.1865 45.7714 30.1865 45.7143 30.0724 45.7143C30.0153 45.7143 29.8441 45.7714 29.4447 45.7714C29.0452 45.8286 28.874 45.7714 28.817 45.8286C28.7599 45.8286 28.7029 45.8857 28.7599 45.9429C28.7599 46.1143 29.4447 46 29.5017 46.5143L29.6729 48.5143C29.6729 48.6857 29.6729 48.7429 29.6729 48.7429C29.6159 48.7429 29.5588 48.6857 29.5017 48.6286L26.991 46.2286C26.8768 46.1143 26.9339 46.0571 26.7627 46.1143C26.4774 46.1143 26.3062 46.1714 26.1921 46.1714C26.0779 46.1714 25.9638 46.1714 25.8497 46.1714C25.7926 46.1714 25.7356 46.2286 25.7356 46.2857C25.7356 46.5714 26.3633 46.1143 26.4774 47.2571L26.5915 49.4286Z" fill="#111111"/>
<path fill-rule="evenodd" clip-rule="evenodd" d="M33.6103 44.8571C33.6103 44.8 33.5532 44.8571 33.5532 44.8571C33.4962 44.8571 33.5532 45.0857 33.4391 45.0857C33.2679 45.1429 32.7543 44.9143 32.1266 45.1429C30.7571 45.5429 30.5859 46.9714 30.8712 47.9429C30.9854 48.4 31.6701 49.7715 33.2679 49.3143C34.4092 48.9714 34.7516 47.9429 34.6374 47.7143C34.6374 47.6572 34.5804 47.6572 34.5233 47.6572C34.3521 47.7143 34.238 48.5714 33.382 48.8C32.3549 49.1429 31.556 48.1143 31.3278 47.3143C31.0995 46.5714 31.2707 45.6 32.0696 45.3714C32.6973 45.2 33.325 45.5429 33.7815 46C33.8386 46.0571 33.8956 46.1714 34.0097 46.1714C34.1239 46.1143 34.0668 46 34.0097 45.9429L33.6103 44.8571Z" fill="#111111"/>
<path fill-rule="evenodd" clip-rule="evenodd" d="M35.2651 44.4572C34.9798 43.9429 35.4934 43.9429 35.3793 43.7714C35.3222 43.7143 35.3222 43.7143 35.151 43.7714C34.8657 43.9429 34.6945 44.0571 34.5233 44.1143C34.3521 44.2286 34.1239 44.2857 33.9527 44.4C33.8956 44.4 33.7815 44.4571 33.8386 44.5714C33.9527 44.7429 34.4092 44.2857 34.6945 44.8L36.064 47.3143C36.3493 47.8286 35.8928 47.8857 36.007 48.0571C36.007 48.0571 36.064 48.1143 36.1211 48.1143C36.2352 48.0571 36.4635 47.8857 36.6917 47.7714C37.0912 47.5429 37.2624 47.4857 37.4906 47.3714C37.6047 47.3143 37.6618 47.2571 37.6047 47.2C37.4906 47.0286 37.0912 47.6 36.7488 46.9143L35.2651 44.4572Z" fill="#111111"/>
<path fill-rule="evenodd" clip-rule="evenodd" d="M2.85317 23.5429C2.51079 23.3714 2.56785 23.2 2.45373 23.1429C2.3396 23.1429 2.3396 23.2 2.3396 23.3143C2.3396 23.4286 2.3396 23.6 2.3396 23.7143C2.3396 23.8286 2.28254 24 2.28254 24.1143C2.28254 24.1714 2.22547 24.2857 2.3396 24.3429C2.56785 24.3429 2.39666 23.8857 2.91023 23.8857C3.02436 23.8857 3.19555 23.9429 3.59499 24.1143L5.36396 24.9714C5.42102 24.9714 5.47808 25.0286 5.47808 25.0286C5.47808 25.0857 5.36396 25.0857 5.36396 25.0857L3.36674 25.5429C2.9673 25.6 2.68198 25.6571 2.51079 25.6571C2.28254 25.6571 2.39666 25.3714 2.22547 25.3143C2.11135 25.3143 2.11135 25.3143 2.11135 25.4857C2.11135 25.5429 2.11135 25.7143 2.11135 26C2.11135 26.1714 2.05428 26.3429 2.05428 26.4571C2.05428 26.5143 1.99722 26.6857 2.11135 26.6857C2.16841 26.6857 2.16841 26.6286 2.22547 26.6286C2.28254 26.4571 2.39666 26.4 2.62492 26.3429L6.2199 25.4857C6.50522 25.4286 6.56228 25.3714 6.56228 25.3143C6.56228 25.2571 6.56228 25.2571 6.3911 25.1429L2.85317 23.5429Z" fill="#111111"/>
<path fill-rule="evenodd" clip-rule="evenodd" d="M5.64927 23.1429C6.2199 23.2571 6.04871 23.7143 6.27697 23.7714C6.39109 23.7714 6.39109 23.7143 6.39109 23.6571C6.44816 23.5429 6.44816 23.3714 6.44816 23.2571C6.50522 23.0857 6.56228 22.9143 6.61935 22.7429C6.61935 22.6857 6.67641 22.5714 6.56228 22.5714C6.27697 22.5143 6.56228 23.2 5.42102 22.9143L3.4238 22.4571C3.36674 22.4571 3.30967 22.4 3.30967 22.4C3.30967 22.4 3.36674 22.3429 3.4238 22.3429L6.96173 20.8C7.01879 20.8 7.07585 20.7429 7.07585 20.6857C7.07585 20.6286 7.01879 20.6286 6.90466 20.5714L3.65205 19.8286C3.02436 19.7143 3.25261 19.3143 3.08142 19.2571C3.08142 19.2571 3.02436 19.2571 2.96729 19.3143C2.96729 19.3714 2.96729 19.5429 2.85317 19.8286C2.7961 20.1714 2.73904 20.2857 2.68198 20.3429C2.68198 20.4 2.73904 20.4571 2.73904 20.4571C2.91023 20.5143 2.96729 19.8857 3.48086 20.0571L5.42102 20.5143C5.59221 20.5714 5.64927 20.5714 5.64927 20.5714C5.64927 20.6286 5.53514 20.6286 5.47808 20.6857L2.51079 21.9429C2.39666 22 2.3396 21.9429 2.3396 22.1143C2.28253 22.3429 2.28253 22.5143 2.22547 22.6286C2.28253 22.6857 2.28253 22.7429 2.22547 22.8571C2.22547 22.9143 2.28253 22.9714 2.28253 22.9714C2.56785 23.0286 2.28253 22.4 3.4238 22.6857L5.64927 23.1429Z" fill="#111111"/>
<path fill-rule="evenodd" clip-rule="evenodd" d="M4.10856 18.1714C3.59499 18 3.8803 17.7143 3.70911 17.6572C3.65205 17.6572 3.59499 17.6572 3.59499 17.7714C3.53792 18.0572 3.48086 18.2286 3.4238 18.3429C3.36673 18.5143 3.30967 18.6857 3.25261 18.8571C3.25261 18.9143 3.19554 19.0286 3.30967 19.0286C3.48086 19.0857 3.53792 18.5143 4.05149 18.6857L6.79053 19.6C7.3041 19.7714 7.07585 20.0571 7.24704 20.1143C7.3041 20.1143 7.3041 20.1143 7.3041 20.0571C7.36117 19.9429 7.36117 19.7143 7.47529 19.5429C7.58942 19.2 7.64648 19.0286 7.70355 18.8571C7.76061 18.7429 7.70355 18.6857 7.64648 18.6857C7.47529 18.6286 7.58942 19.2 6.8476 18.9714L4.10856 18.1714Z" fill="#111111"/>
<path fill-rule="evenodd" clip-rule="evenodd" d="M5.47808 14.7429C5.19276 14.4571 5.30689 14.3429 5.19276 14.2857C5.07863 14.2286 5.07863 14.3429 5.02157 14.4C4.96451 14.5143 4.90744 14.6286 4.90744 14.8C4.85038 14.9143 4.79332 15.0286 4.73625 15.1429C4.73625 15.2 4.62213 15.3143 4.73625 15.3714C4.90744 15.4857 4.90744 14.9143 5.42101 15.1429C5.53514 15.2 5.70633 15.2571 5.99165 15.5429L7.36117 16.8571C7.41823 16.9143 7.4753 16.9143 7.4753 16.9714H7.36117L5.36395 16.7429C4.96451 16.6857 4.67919 16.6286 4.56506 16.5714C4.33681 16.4571 4.508 16.2286 4.39387 16.1714C4.27975 16.1143 4.27975 16.1714 4.22268 16.2857C4.10856 16.4571 4.10856 16.5714 3.99443 16.8571C3.93737 17.0286 3.82324 17.1429 3.76618 17.3143C3.76618 17.3714 3.65205 17.4857 3.76618 17.5429C3.82324 17.5429 3.8803 17.5429 3.8803 17.4857C3.99443 17.3143 4.10856 17.3143 4.33681 17.3143L7.98886 17.6571C8.27418 17.6571 8.33124 17.6571 8.33124 17.6C8.33124 17.5429 8.33124 17.5429 8.21712 17.4286L5.47808 14.7429Z" fill="#111111"/>
<path fill-rule="evenodd" clip-rule="evenodd" d="M6.44816 13.5429C6.10578 13.3143 6.10578 13.3143 6.44816 12.8C6.96173 12 7.30411 12.7429 7.4753 12.5143C7.53236 12.4 7.36117 12.3429 7.30411 12.2857L6.79054 12C6.73347 11.9429 6.67641 11.9429 6.61935 12C6.39109 12.3429 6.2199 12.6286 6.04871 12.9143C5.64927 13.5429 5.42102 13.7714 5.36395 13.9429C5.30689 14 5.36395 14.0571 5.42102 14.1143C5.53514 14.2857 5.70633 13.7143 6.16284 14L8.50244 15.5428C9.13013 15.9428 8.61656 16.0571 8.90188 16.2286C8.95894 16.2286 8.95894 16.2286 9.01601 16.1714C9.1872 15.9428 9.24426 15.7714 9.35839 15.6571C9.47251 15.4286 9.6437 15.2 10.0431 14.6286C10.2714 14.2857 9.98608 13.7714 9.58664 13.5429C9.47251 13.4857 9.47251 13.4857 9.47251 13.4857C9.35839 13.6571 10.0431 14 9.41545 15.0286C9.24426 15.3143 9.07307 15.2 8.73069 14.9714L8.10299 14.5714C7.81768 14.4 7.76061 14.3428 7.87474 14.1714L8.04593 13.8857C8.33125 13.4857 8.78775 13.9429 8.84482 13.7714C8.90188 13.6571 8.73069 13.6 8.67363 13.5429L7.76061 12.9714C7.64649 12.9143 7.58942 12.9143 7.58942 12.9714C7.53236 13.0286 7.98887 13.3714 7.76061 13.7143L7.58942 13.9429C7.4753 14.1143 7.41823 14.1143 7.24704 13.9429L6.44816 13.5429Z" fill="#111111"/>
<path fill-rule="evenodd" clip-rule="evenodd" d="M12.4398 11.2C12.5539 11.3143 12.5539 11.3143 12.6681 11.2571C12.9534 11.1429 13.1816 11.0857 13.4099 10.9143C13.8664 10.5143 13.8664 9.82857 13.3528 9.2C12.8392 8.62857 12.4398 8.62857 11.8692 8.74285C11.1273 8.91428 10.8991 8.97143 10.6708 8.68571C10.3855 8.4 10.4426 8.05714 10.6708 7.88571C11.2985 7.37143 12.0404 8.17143 12.1545 8.11428C12.2116 8.05714 12.2116 8 12.0974 7.88571L11.5268 7.31428C11.4127 7.2 11.4127 7.14286 11.3556 7.2C11.2985 7.25714 11.2985 7.37143 11.2415 7.42857C11.1273 7.54286 10.842 7.48571 10.5567 7.71428C10.1002 8.05714 10.1573 8.68571 10.6138 9.2C11.0132 9.65714 11.3556 9.65714 11.8121 9.6C12.6681 9.42857 12.9534 9.31428 13.2958 9.65714C13.5811 10 13.5811 10.4 13.2958 10.6857C12.8963 11.0286 12.3257 10.8 11.8121 10.4571C11.755 10.4 11.698 10.4 11.6409 10.4C11.5268 10.4571 11.698 10.5714 11.755 10.6286L12.4398 11.2Z" fill="#111111"/>
<path fill-rule="evenodd" clip-rule="evenodd" d="M13.0675 6.68571C12.7251 6.22857 13.1816 6.17143 13.0675 6C13.0104 5.94285 13.0104 5.94286 12.8963 6.05714C12.6681 6.22857 12.5539 6.34286 12.3827 6.45714C12.2686 6.57143 12.0974 6.62857 11.9262 6.74286C11.8692 6.74286 11.8121 6.8 11.8692 6.91428C11.9833 7.08571 12.3257 6.62857 12.6681 7.08571L14.3229 9.42857C14.6653 9.88572 14.2658 9.94286 14.38 10.1143L14.437 10.1714C14.5511 10.1143 14.7223 9.94286 14.8365 9.82857C15.1218 9.6 15.293 9.54286 15.4642 9.42857C15.5783 9.37143 15.5783 9.31429 15.5212 9.25714C15.4071 9.08572 15.1218 9.65714 14.7223 9.02857L13.0675 6.68571Z" fill="#111111"/>
<path fill-rule="evenodd" clip-rule="evenodd" d="M29.6159 3.08572C29.6729 2.80001 29.7871 2.74286 29.9582 2.74286C30.7001 2.85715 30.5859 3.71429 30.5289 3.88572C30.4718 4.05715 30.3577 4.68572 29.7871 4.57143C29.6729 4.57143 29.6159 4.51429 29.5588 4.51429C29.5017 4.51429 29.5017 4.57144 29.5017 4.62858C29.5017 4.62858 29.5017 4.80001 29.9582 4.85715C30.5289 4.97144 31.0424 4.57143 31.1566 3.82858C31.3278 2.97143 30.7571 2.57144 30.1865 2.45715C29.8441 2.40001 29.5017 2.34286 29.4447 2.34286C29.1023 2.34286 28.817 2.28572 28.817 2.28572C28.7029 2.28572 28.6458 2.34286 28.6458 2.40001C28.5887 2.62858 29.1594 2.45715 29.0452 3.08572L28.5887 5.65715C28.4746 6.40001 28.1322 6.17144 28.0752 6.34286C28.0752 6.45715 28.1322 6.45715 28.1322 6.45715C28.1893 6.45715 28.5317 6.51429 28.7029 6.51429C28.817 6.51429 28.9882 6.57143 29.3306 6.62858C29.3876 6.62858 29.4447 6.68572 29.4447 6.57143C29.5017 6.34286 28.9882 6.51429 29.1023 5.77144L29.6159 3.08572Z" fill="#111111"/>
<path fill-rule="evenodd" clip-rule="evenodd" d="M33.6103 3.37144C32.5261 3.02858 31.6131 3.71429 31.1566 4.97144C30.7571 6.11429 31.0995 7.08572 32.0125 7.42858C33.4391 7.94286 34.1809 6.62858 34.4663 5.82858C34.8657 4.57144 34.4663 3.65715 33.6103 3.37144ZM33.8386 5.82858C33.4962 6.74286 32.9826 7.42858 32.2408 7.20001C31.4419 6.91429 31.556 5.65715 31.8413 4.85715C32.1267 4.05715 32.6402 3.31429 33.3821 3.60001C33.9527 3.71429 34.2951 4.57144 33.8386 5.82858Z" fill="#111111"/>
<path fill-rule="evenodd" clip-rule="evenodd" d="M36.2352 5.08571C36.4635 4.68571 36.6347 5.02857 36.7488 4.8C36.8058 4.74285 36.7488 4.74285 36.6917 4.68571C36.6347 4.62857 36.5776 4.62857 36.1782 4.45714C36.007 4.4 35.7787 4.22857 35.6075 4.11428C35.4934 4.05714 35.4363 4.05714 35.4363 4.11428C35.3222 4.28571 35.8928 4.4 35.6646 4.85714L34.3521 7.42857C34.0098 8.05714 33.8386 7.6 33.7244 7.88571C33.7244 7.94285 33.7244 7.94285 33.7815 8C34.0098 8.11428 34.1809 8.17143 34.3521 8.28571C34.5804 8.4 34.8086 8.57143 35.4363 8.85714C35.7787 9.02857 36.2352 8.74285 36.4635 8.28571C36.5205 8.17143 36.5205 8.17143 36.4635 8.17143C36.2923 8.11428 36.007 8.8 34.9798 8.28571C34.6945 8.11428 34.8086 7.94285 34.9798 7.6L36.2352 5.08571Z" fill="#111111"/>
<path fill-rule="evenodd" clip-rule="evenodd" d="M38.8031 6.68572C39.1454 6.22857 39.3166 6.57143 39.4308 6.4C39.4878 6.34286 39.4308 6.34286 39.3166 6.22857C39.0884 6.05714 38.9172 6 38.8031 5.88572C38.6889 5.77143 38.5177 5.65714 38.3465 5.54286C38.2895 5.54286 38.2324 5.42857 38.1754 5.54286C38.0612 5.71429 38.5748 5.88572 38.2895 6.34286L36.6917 8.74286C36.3493 9.2 36.1781 8.91429 36.064 9.08572C36.064 9.08572 36.007 9.14286 36.064 9.2C36.1781 9.25715 36.3493 9.37143 36.5205 9.48572C36.8058 9.71429 36.977 9.82858 37.0912 9.88572C37.2053 9.94286 37.2053 9.94286 37.2623 9.88572C37.3765 9.71429 36.7488 9.65715 37.2053 9.02858L38.8031 6.68572Z" fill="#111111"/>
<path fill-rule="evenodd" clip-rule="evenodd" d="M38.6319 10.0571C38.1754 10.6286 37.9471 10.0571 37.7759 10.2286C37.7189 10.3429 37.7759 10.4 37.833 10.4571C38.0042 10.5714 38.1183 10.6286 38.3466 10.8571C38.5748 11.0286 38.6889 11.1429 38.8601 11.3143C38.9743 11.3714 39.0313 11.4857 39.1454 11.3714C39.2596 11.2571 38.6889 11.0286 39.0884 10.4L40.7432 8.28572C40.9144 8.05714 40.9715 8.05714 41.1427 8.17143L41.485 8.4C41.9416 8.74286 41.428 9.14286 41.5421 9.25714C41.6562 9.31429 41.7133 9.14286 41.7704 9.02857L42.0557 8.57143C42.1127 8.51429 42.1127 8.45714 42.1127 8.4C41.7704 8.11429 41.485 7.94286 40.9715 7.54286C40.4008 7.08572 40.1726 6.91429 39.8302 6.62857C39.7731 6.57143 39.7161 6.62857 39.659 6.68572L39.0884 7.25714C39.0313 7.31429 38.9172 7.42857 39.0313 7.48572C39.2025 7.6 39.5449 6.91429 40.0014 7.25714L40.3438 7.48572C40.515 7.6 40.515 7.65714 40.3438 7.88572L38.6319 10.0571Z" fill="#111111"/>
<path fill-rule="evenodd" clip-rule="evenodd" d="M42.7404 10.0571C43.0257 9.77143 43.0828 9.77143 43.4252 10.2286C44.0529 10.9143 43.3111 11.0857 43.4252 11.2571C43.4823 11.3143 43.6534 11.2 43.7105 11.1429L44.11 10.7429C44.167 10.6857 44.167 10.6286 44.11 10.5714C43.8246 10.2857 43.5964 10.0571 43.3681 9.77143C42.8546 9.25714 42.6834 8.97143 42.5122 8.8C42.4551 8.74286 42.398 8.74286 42.341 8.8C42.1698 8.97143 42.6834 9.2 42.2839 9.6L40.2296 11.4857C39.7161 12 39.659 11.4857 39.4878 11.6571C39.4878 11.6571 39.4308 11.7143 39.4878 11.7714C39.659 11.9429 39.8302 12.1143 39.9443 12.2286C40.1155 12.4 40.2867 12.6286 40.8003 13.1429C41.0856 13.4286 41.5992 13.3143 41.9415 12.9714C41.9986 12.9143 41.9986 12.8571 41.9986 12.8571C41.8845 12.7429 41.3709 13.3143 40.515 12.4571C40.2867 12.2286 40.4579 12.0571 40.7432 11.8286L41.3139 11.3143C41.5421 11.0857 41.5992 11.0286 41.7704 11.2L41.9986 11.4857C42.341 11.8286 41.7704 12.1714 41.8845 12.2857C41.9415 12.3429 42.1127 12.2286 42.1698 12.1714L42.9116 11.4286C43.0257 11.3143 42.9687 11.2571 42.9687 11.2571C42.9116 11.2 42.5122 11.5429 42.2269 11.2571L41.9986 11.0286C41.8845 10.8571 41.8845 10.8571 42.0557 10.6857L42.7404 10.0571Z" fill="#111111"/>
<path fill-rule="evenodd" clip-rule="evenodd" d="M46.2784 13.7714V13.7143C46.2213 13.6571 46.0501 13.7714 46.0501 13.7143C45.993 13.6 46.0501 13.0857 45.7648 12.6286C45.08 11.6571 43.7105 11.9429 42.9116 12.5143C42.5122 12.8 41.3709 13.8286 42.1698 14.9714C42.7404 15.8286 43.7676 15.7143 43.9388 15.6C43.9958 15.6 43.9958 15.5429 43.9388 15.4857C43.8817 15.3714 43.0257 15.5429 42.6263 14.9143C42.1127 14.1714 42.8546 13.2 43.5964 12.6857C44.2811 12.2286 45.1942 12.1143 45.5365 12.6857C45.8219 13.1429 45.6507 13.7714 45.3083 14.2857C45.2512 14.3429 45.1942 14.4571 45.1942 14.5143C45.2512 14.5714 45.3653 14.5143 45.3653 14.4571L46.2784 13.7714Z" fill="#111111"/>
<path fill-rule="evenodd" clip-rule="evenodd" d="M43.8817 16.1714C43.3111 16.4572 43.254 15.9429 43.0257 16.0572C42.9116 16.1143 43.0257 16.1714 43.0257 16.2286C43.0828 16.3429 43.1399 16.4572 43.1969 16.5714C43.254 16.7429 43.3111 16.8572 43.4252 17.0857C43.4252 17.1429 43.4822 17.2572 43.5964 17.2C43.8246 17.0857 43.1969 16.6857 44.2811 16.2286L46.1072 15.3714C46.1642 15.3714 46.2213 15.3143 46.2213 15.3714C46.2213 15.3714 46.2213 15.4286 46.1642 15.4857L44.2811 18.8572C44.2811 18.9143 44.2241 18.9714 44.2811 19.0286C44.2811 19.0857 44.3382 19.0857 44.4523 19.0286L47.4767 17.6C48.0473 17.3143 48.1044 17.7714 48.2756 17.7143C48.2756 17.7143 48.3326 17.6572 48.3326 17.6C48.3326 17.5429 48.2185 17.4286 48.1044 17.1429C47.9903 16.8572 47.9332 16.6857 47.8761 16.6286C47.8761 16.5714 47.762 16.5714 47.762 16.6286C47.5908 16.6857 47.9332 17.2 47.4196 17.4286L45.5936 18.2857C45.4795 18.2857 45.4224 18.2857 45.3653 18.2857C45.3653 18.2857 45.4224 18.1714 45.4224 18.0572L47.0202 15.2C47.0772 15.0857 47.1343 15.0857 47.0772 14.9714C46.9631 14.7429 46.9061 14.6286 46.849 14.5143C46.849 14.4571 46.7919 14.4 46.7919 14.2857C46.7919 14.2286 46.7349 14.2286 46.6778 14.2286C46.3925 14.3429 47.0202 14.6857 45.936 15.1429L43.8817 16.1714Z" fill="#111111"/>
<path fill-rule="evenodd" clip-rule="evenodd" d="M48.1614 19.3143C48.675 19.1429 48.618 19.5429 48.7891 19.4857C48.8462 19.4857 48.8462 19.4286 48.8462 19.3143C48.7891 19.0286 48.675 18.9143 48.618 18.7429C48.5609 18.5714 48.5609 18.4 48.4468 18.2286C48.4468 18.1714 48.3897 18.0571 48.3326 18.1143C48.1614 18.1714 48.4468 18.6286 47.9332 18.8L45.1942 19.6571C44.6806 19.8286 44.6806 19.4286 44.5094 19.5429C44.4523 19.5429 44.4523 19.6 44.4523 19.6C44.5094 19.7143 44.5665 19.8857 44.6235 20.1143C44.7376 20.4571 44.7947 20.6286 44.8518 20.8C44.9088 20.9143 44.9088 20.9143 44.9659 20.9143C45.1371 20.8571 44.7376 20.4571 45.4224 20.2286L48.1614 19.3143Z" fill="#111111"/>
<path fill-rule="evenodd" clip-rule="evenodd" d="M49.4168 22.8571C49.4739 22.8571 49.4739 22.8 49.4168 22.8C49.4168 22.7429 49.1886 22.7429 49.1886 22.6857C49.1886 22.5143 49.4739 22.1143 49.3598 21.5429C49.1315 20.3429 47.762 20.1143 46.7919 20.2857C46.3354 20.3429 44.8518 20.8572 45.08 22.2286C45.2512 23.2571 46.2213 23.6 46.4496 23.5429C46.5066 23.5429 46.5066 23.4857 46.5066 23.4857C46.5066 23.3714 45.6507 23.2 45.5365 22.4571C45.3653 21.5429 46.4496 20.9714 47.3055 20.8572C48.1044 20.7429 48.9603 20.9714 49.1315 21.6572C49.2457 22.2286 48.7892 22.6857 48.2756 23.0286C48.2185 23.0857 48.1044 23.1429 48.1044 23.2C48.1044 23.2571 48.2756 23.2571 48.3326 23.2L49.4168 22.8571Z" fill="#111111"/>
<path fill-rule="evenodd" clip-rule="evenodd" d="M15.293 37.8857C15.1218 38 15.1218 38 14.9506 37.7714C14.6653 37.3714 15.0647 37.3143 14.9506 37.2571C14.8935 37.2 14.8365 37.2571 14.8365 37.3143L14.6082 37.4857C14.6082 37.4857 14.5511 37.5429 14.6082 37.5429C14.7223 37.7143 14.8365 37.8286 14.9506 38C15.1788 38.2857 15.293 38.4571 15.35 38.5143C15.35 38.5714 15.4071 38.5714 15.4071 38.5143C15.5212 38.4571 15.2359 38.2857 15.4642 38.1143L16.4913 37.3143C16.7766 37.0857 16.7766 37.3714 16.8337 37.2571V37.2C16.7766 37.0857 16.6625 37.0286 16.6054 36.9714C16.5484 36.8571 16.4342 36.7429 16.206 36.4571C16.0919 36.2857 15.8065 36.2857 15.6354 36.4571C15.5783 36.5143 15.5783 36.5143 15.5783 36.5143C15.6354 36.5714 15.9207 36.3429 16.263 36.8571C16.3772 37.0286 16.263 37.0286 16.1489 37.1429L15.9777 37.3714C15.8636 37.4857 15.8065 37.4857 15.7495 37.4286L15.6354 37.2571C15.4642 37.0286 15.7495 36.9143 15.6924 36.8571C15.6354 36.8 15.5783 36.8571 15.5783 36.9143L15.1788 37.2C15.1218 37.2571 15.1218 37.2571 15.1788 37.2571C15.2359 37.3143 15.4071 37.1429 15.5212 37.3143L15.6354 37.4286C15.6924 37.4857 15.6924 37.5429 15.5783 37.6L15.293 37.8857Z" fill="#111111"/>
<path fill-rule="evenodd" clip-rule="evenodd" d="M15.7495 36.1714C15.9207 36.1714 16.0348 36.2857 16.0348 36.2286C16.0919 36.2286 16.0348 36.1714 15.9777 36.1143C15.9207 36.0571 15.8636 36 15.8065 35.9429C15.7495 35.8857 15.7495 35.8286 15.6354 35.7143C15.5783 35.6571 15.5783 35.6571 15.5783 35.6571C15.5212 35.7143 15.6924 35.8286 15.5783 35.9429C15.5212 35.9429 15.4642 36 15.35 36H15.0077C14.9506 36 14.8935 36 14.8935 36C14.8935 36 14.8935 35.9429 14.9506 35.8857L15.1218 35.4857C15.1218 35.4286 15.1788 35.3714 15.2359 35.3143C15.293 35.2571 15.35 35.3714 15.4642 35.3143C15.5212 35.3143 15.4642 35.2571 15.4642 35.2571C15.4071 35.2 15.35 35.1429 15.293 35.0286C15.2359 34.9143 15.1788 34.8571 15.1788 34.8571C15.0647 34.8571 15.0077 34.8571 15.0077 34.8571C14.9506 34.9143 15.0647 34.9714 14.9506 35.2571L14.7223 35.9429C14.6653 36 14.6653 36.0571 14.6653 36.0571C14.6653 36.0571 14.5511 36.0571 14.4941 36.0571H13.9805C13.6381 36.0571 13.5811 35.8857 13.524 35.9429C13.524 35.9429 13.4669 36 13.524 36C13.5811 36.1143 13.6381 36.1714 13.6952 36.2286C13.7523 36.2857 13.7523 36.3429 13.8664 36.4571C13.8664 36.4571 13.8664 36.5143 13.9235 36.4571C13.9805 36.4 13.8664 36.2857 13.9235 36.2286C13.9805 36.1714 14.0376 36.1714 14.1517 36.1714H14.4941C14.5511 36.1714 14.5511 36.1714 14.6082 36.1714V36.2286L14.38 36.6857C14.38 36.7429 14.3229 36.7429 14.3229 36.7429C14.2658 36.8 14.1517 36.6857 14.0946 36.7429C14.0946 36.7429 14.0376 36.7429 14.0946 36.8C14.1517 36.8571 14.1517 36.9143 14.3229 37.0286C14.437 37.2 14.4941 37.2571 14.4941 37.3143C14.4941 37.3714 14.5511 37.3714 14.5511 37.3143C14.6082 37.2571 14.437 37.2 14.6653 36.7429L14.8935 36.2286C14.8935 36.1714 14.9506 36.1143 14.9506 36.0571C14.9506 36.0571 15.0077 36.0571 15.0647 36.0571L15.7495 36.1714Z" fill="#111111"/>
<path fill-rule="evenodd" clip-rule="evenodd" d="M23.2818 10.6286C23.5672 10.6286 23.8525 10.8571 23.8525 11.2C23.8525 11.4857 23.6242 11.7714 23.2818 11.7714C22.9965 11.7714 22.7112 11.5429 22.7112 11.2C22.7112 10.8571 22.9965 10.6286 23.2818 10.6286Z" fill="#111111"/>
<path fill-rule="evenodd" clip-rule="evenodd" d="M18.2032 11.7714C18.4885 11.7714 18.7738 12 18.7738 12.3429C18.7738 12.6286 18.5456 12.9143 18.2032 12.9143C17.9179 12.9143 17.6326 12.6857 17.6326 12.3429C17.6896 12 17.9179 11.7714 18.2032 11.7714Z" fill="#111111"/>
<path d="M34.9228 13.8857C34.8086 14.2286 34.6374 14.2857 34.1239 14.1714C33.6674 14.1143 33.6674 13.4857 33.7244 13.2571L32.9826 13.0286C32.6402 13.6571 32.2978 13.7143 31.9555 13.6571C31.4419 13.6 31.3848 12.6857 31.4419 12.1714L30.643 12C30.2436 13.0857 30.0724 13.2 29.6159 13.3143C29.3306 13.3714 29.1594 13.2 29.0452 13.0857C28.874 12.9143 28.7599 12.6857 28.7599 12.4571C28.7599 12.3429 28.817 12.2286 28.817 12.1143L28.0752 12C28.0181 12.1143 28.0181 12.2857 28.0181 12.4C27.961 12.6857 27.7898 12.9714 27.6187 13.0857C27.5045 13.2 27.3333 13.2 27.2192 13.1429C26.8198 13.0286 26.3633 12.7429 26.3633 11.2571H25.5644C25.5644 11.3143 25.5644 11.3714 25.5644 11.3714C25.5644 12.4571 25.2791 12.9714 24.7084 13.1429C24.5372 13.2 24.4231 13.1429 24.2519 13.0286C24.0807 12.8571 23.9095 12.5714 23.8525 12.2857C23.8525 12.1714 23.8525 12.0571 23.8525 11.9429L23.0536 12C23.0536 12.1143 23.0536 12.2286 23.0536 12.3429C23.0536 12.6286 22.9395 12.9143 22.7112 13.0857C22.54 13.2571 22.3688 13.3143 22.1976 13.2571C21.7411 13.1429 21.5129 12.9714 21.1134 11.8857L20.3716 12.0571C20.4287 12.6286 20.3716 13.5429 19.858 13.6C19.5727 13.6571 19.2303 13.6 18.888 12.8571L18.1461 13.1429C18.2032 13.6571 17.9749 14.1143 17.6896 14.2286C17.1761 14.3429 17.1761 14.3429 16.9478 13.9429L16.8907 13.8286L16.206 14.2286L16.263 14.3429C16.6054 14.9714 16.8907 15.2571 17.8608 14.9714C18.3173 14.8571 18.6026 14.5143 18.7738 14.1143C19.1162 14.4 19.5157 14.5143 19.9722 14.4571C20.3716 14.4 20.7711 14.1714 20.9993 13.4857C21.2846 13.7714 21.5699 14 22.0264 14.0571C22.483 14.1143 22.8824 14 23.2248 13.6571C23.2818 13.6 23.396 13.4857 23.453 13.3714C23.5101 13.4857 23.6242 13.5429 23.6813 13.6C24.0237 13.8857 24.4231 13.9429 24.8225 13.8286C25.3361 13.6571 25.6785 13.3714 25.9068 13.0286C26.135 13.4286 26.4774 13.7143 26.9339 13.8286C27.3333 13.9429 27.6757 13.8857 28.0181 13.6C28.1322 13.5429 28.1893 13.4286 28.3034 13.3143C28.3605 13.3714 28.4175 13.4286 28.4175 13.4857C28.7599 13.8857 29.2164 14.0571 29.73 13.9429C30.1865 13.8857 30.4718 13.6571 30.7571 13.3714C30.9854 14.0571 31.499 14.2286 31.8413 14.2857C32.1837 14.3429 32.6402 14.2857 33.0397 14C33.2109 14.4 33.5532 14.6857 33.9527 14.8C34.3521 14.8571 35.2081 15.0286 35.6646 14.0571L34.9228 13.8857Z" fill="#111111"/>
<path fill-rule="evenodd" clip-rule="evenodd" d="M28.4746 10.6286C28.7599 10.6286 29.0452 10.8571 29.0452 11.2C29.0452 11.4857 28.817 11.7714 28.4746 11.7714C28.1893 11.7714 27.904 11.5429 27.904 11.2C27.904 10.9143 28.1322 10.6286 28.4746 10.6286Z" fill="#111111"/>
<path fill-rule="evenodd" clip-rule="evenodd" d="M33.6103 11.6571C33.8956 11.6571 34.1809 11.8857 34.1809 12.2286C34.1809 12.5714 33.9527 12.8 33.6103 12.8C33.325 12.8 33.0397 12.5714 33.0397 12.2286C33.0397 11.8857 33.2679 11.6571 33.6103 11.6571Z" fill="#111111"/>
<path fill-rule="evenodd" clip-rule="evenodd" d="M18.2603 16.6857L18.8309 16.1143L19.5727 16.4L19.0021 16.9714L18.2603 16.6857Z" fill="#111111"/>
<path d="M16.9478 16.2286C20.3716 15.1429 22.3688 14.8 25.9638 14.8571C29.6159 14.8571 31.6131 15.2 35.0369 16.2286C35.0369 16.2286 35.3222 16.2857 35.4363 15.9429C35.5505 15.6 35.2651 15.4857 35.2651 15.4857C31.8413 14.4 29.6729 14.0571 25.9638 14.0571C22.3118 14.0571 20.1434 14.4 16.7196 15.4857C16.7196 15.4857 16.4342 15.6 16.5484 15.9429C16.6054 16.2857 16.9478 16.2286 16.9478 16.2286Z" fill="#111111"/>
<path d="M17.6326 18.4C17.9179 18.3429 18.2603 18.2857 18.6026 18.1714C20.3145 17.7714 22.3688 17.3143 25.9068 17.3143C28.817 17.3143 30.8142 17.7143 33.325 18.2286L34.238 18.4C34.238 18.4 34.5233 18.4571 34.5804 18.1143C34.6374 17.7714 34.3521 17.6571 34.3521 17.6571L33.4391 17.4857C30.8713 16.9714 28.874 16.5714 25.8497 16.5714C22.2547 16.5714 20.0863 17.0857 18.3744 17.4857C18.032 17.5429 17.7467 17.6571 17.4043 17.7143C17.4043 17.7143 17.119 17.8286 17.1761 18.1714C17.3472 18.4571 17.6326 18.4 17.6326 18.4Z" fill="#111111"/>
<path fill-rule="evenodd" clip-rule="evenodd" d="M22.8253 15.8286L23.5101 15.3143L24.2519 15.7143L23.5672 16.1714L22.8253 15.8286Z" fill="#111111"/>
<path fill-rule="evenodd" clip-rule="evenodd" d="M35.0369 17.2C35.2081 16.8571 34.9798 16.3429 34.9798 16.3429C34.6945 16.2857 34.1809 16.2857 34.0668 16.6857C33.9527 17.0857 34.0668 17.3714 34.5233 17.6571C34.4662 17.6 34.7516 17.5429 35.0369 17.2Z" fill="#111111"/>
<path fill-rule="evenodd" clip-rule="evenodd" d="M33.6103 16.6857L33.0397 16.1143L32.2978 16.4L32.8685 16.9714L33.6103 16.6857Z" fill="#111111"/>
<path fill-rule="evenodd" clip-rule="evenodd" d="M28.9882 15.8286L28.3605 15.3143L27.6186 15.7143L28.3034 16.1714L28.9882 15.8286Z" fill="#111111"/>
<path fill-rule="evenodd" clip-rule="evenodd" d="M31.7843 16.2286C31.8413 15.8286 31.3848 15.5429 30.8142 15.4286C30.2436 15.3143 29.6729 15.4857 29.6159 15.8857C29.5588 16.2857 29.9583 16.5714 30.5859 16.6857C31.1566 16.7429 31.7272 16.6286 31.7843 16.2286Z" fill="#111111"/>
<path fill-rule="evenodd" clip-rule="evenodd" d="M39.2025 18.1714C39.3166 18.1143 39.3737 18.1143 39.4308 18.2286C39.659 18.5714 39.2596 18.8 39.2025 18.8571C39.1454 18.9143 38.8601 19.0286 38.6889 18.8C38.6319 18.7429 38.6319 18.6857 38.6319 18.6857H38.5748C38.5748 18.6857 38.5177 18.7429 38.6319 18.9714C38.8031 19.2 39.0884 19.3143 39.4308 19.1429C39.7731 18.9143 39.7731 18.5714 39.602 18.2857C39.4878 18.1143 39.4308 18 39.3737 17.9429C39.2596 17.7714 39.2025 17.6571 39.2025 17.6571C39.1454 17.6 39.1454 17.6 39.1454 17.6C39.0313 17.6571 39.3166 17.8286 39.0313 18L37.9471 18.6857C37.6047 18.8571 37.6047 18.6857 37.4906 18.7429C37.4336 18.7429 37.4906 18.8 37.4906 18.8C37.4906 18.8 37.6047 18.9714 37.6618 19.0857C37.7189 19.1429 37.7189 19.2571 37.833 19.3714C37.833 19.4286 37.833 19.4286 37.8901 19.4286C38.0042 19.3714 37.7759 19.2 38.0612 19.0286L39.2025 18.1714Z" fill="#111111"/>
<path fill-rule="evenodd" clip-rule="evenodd" d="M41.5421 24.4C41.5992 24.4 41.6562 24.4 41.6562 24.3429C41.6562 24.2857 41.5992 24.2857 41.5421 24.2857C41.5421 24.2286 41.7133 24 41.6562 23.6572C41.5992 23.0286 40.9144 22.8572 40.4008 22.9143C40.1726 22.9714 39.4308 23.1429 39.5449 23.8857C39.6019 24.1714 39.7731 24.4 39.9443 24.6286H40.0014C40.0584 24.6286 40.1155 24.6286 40.2296 24.5714C40.6291 24.5143 40.4579 24.6857 40.572 24.6857C40.6291 24.6857 40.6291 24.6857 40.6291 24.6286C40.6291 24.5714 40.572 24.4572 40.572 24.3429C40.572 24.2286 40.572 24.1143 40.515 24C40.515 23.9429 40.515 23.8857 40.4579 23.8857C40.3438 23.8857 40.572 24.1714 40.1155 24.2286C39.9443 24.2286 39.7161 24.2857 39.659 23.8286C39.6019 23.4286 40.1155 23.2 40.515 23.1429C41.2568 23.0286 41.485 23.3143 41.485 23.5429C41.5992 24.1714 40.9144 24.2857 40.9715 24.3429C40.9715 24.4 40.9715 24.4 41.0285 24.4H41.5421Z" fill="#111111"/>
<path fill-rule="evenodd" clip-rule="evenodd" d="M41.3139 27.2C41.5421 27.2 41.5421 27.2572 41.485 27.5429C41.428 28 41.0856 27.7714 41.0856 27.8857C41.0856 27.9429 41.1997 27.9429 41.1997 27.9429H41.485C41.485 27.9429 41.5421 27.9429 41.5421 27.8857C41.5421 27.6571 41.5992 27.4857 41.5992 27.3143C41.6562 26.9143 41.6562 26.7429 41.6562 26.6857C41.6562 26.6286 41.6562 26.6286 41.5992 26.6286C41.485 26.6286 41.5421 26.9143 41.2568 26.8572L39.8873 26.6857C39.5449 26.6286 39.7161 26.4572 39.6019 26.4572C39.6019 26.4572 39.5449 26.4572 39.5449 26.5143C39.5449 26.6286 39.5449 26.7429 39.5449 26.8572C39.5449 26.9714 39.4878 27.1429 39.4878 27.4857C39.4878 27.7143 39.7161 27.8857 39.9443 27.8857C40.0014 27.8857 40.0014 27.8857 40.0014 27.8857C40.0014 27.7714 39.6019 27.7714 39.7161 27.1429C39.7161 26.9714 39.8302 26.9714 40.0014 27.0286L40.4008 27.0857C40.572 27.0857 40.6291 27.0857 40.572 27.2V27.3714C40.572 27.6572 40.2296 27.5429 40.2296 27.6C40.2296 27.6571 40.3438 27.6572 40.3438 27.6572L40.8573 27.7143C40.9144 27.7143 40.9144 27.7143 40.9144 27.6572C40.9144 27.6 40.6291 27.5429 40.6862 27.3714V27.2C40.6862 27.0857 40.7432 27.0857 40.8573 27.0857L41.3139 27.2Z" fill="#111111"/>
<path fill-rule="evenodd" clip-rule="evenodd" d="M39.659 28.0571C39.602 28.0571 39.5449 28.0571 39.5449 28.1143C39.4878 28.2286 39.3737 28.3429 39.3737 28.5143C39.3166 28.8571 39.5449 29.0857 39.8873 29.2C40.2297 29.2571 40.4008 29.1429 40.572 28.9143C40.8003 28.6286 40.8573 28.5143 41.0856 28.5143C41.2568 28.5714 41.3709 28.6857 41.3139 28.8571C41.2568 29.2571 40.6862 29.2 40.6862 29.2571C40.6862 29.3143 40.6862 29.3143 40.8003 29.3143L41.1997 29.3714C41.2568 29.3714 41.3139 29.3714 41.3139 29.3714C41.3139 29.3143 41.2568 29.2571 41.3139 29.2571C41.3139 29.2 41.485 29.0857 41.485 28.9143C41.5421 28.6286 41.3139 28.4 41.0285 28.3429C40.7432 28.2857 40.572 28.4 40.4579 28.5714C40.1726 28.9143 40.1155 29.0857 39.8873 29.0286C39.659 28.9714 39.5449 28.8 39.602 28.6286C39.659 28.3429 39.9443 28.2857 40.2297 28.2286C40.2867 28.2286 40.2867 28.2286 40.2867 28.1714C40.2867 28.1143 40.2297 28.1143 40.1726 28.1143H39.659V28.0571Z" fill="#111111"/>
<path fill-rule="evenodd" clip-rule="evenodd" d="M39.3737 29.3143C39.3166 29.3143 39.2596 29.3143 39.2596 29.3714C39.2025 29.4857 39.0884 29.6 39.0313 29.7143C38.9172 30 39.0884 30.3429 39.4878 30.4571C39.8302 30.5714 40.0014 30.4571 40.2297 30.2286C40.515 29.9429 40.572 29.8286 40.7432 29.8857C40.9144 29.9429 41.0285 30.1143 40.9715 30.2286C40.8573 30.6286 40.2867 30.5143 40.2867 30.5714C40.2867 30.6286 40.2867 30.6286 40.3438 30.6286L40.7432 30.7429C40.8003 30.7429 40.8573 30.8 40.8573 30.7429C40.8573 30.6857 40.8573 30.6286 40.8573 30.6286C40.8573 30.5714 41.0285 30.5143 41.0856 30.2857C41.1997 30 41.0285 29.7714 40.6862 29.6572C40.4008 29.5429 40.2296 29.6572 40.0585 29.8286C39.7161 30.1714 39.659 30.2857 39.4308 30.2286C39.2025 30.1714 39.1454 29.9429 39.2025 29.7714C39.3166 29.4857 39.602 29.4286 39.8873 29.4286C39.9443 29.4286 39.9443 29.4286 39.9443 29.3714C39.9443 29.3143 39.8873 29.3143 39.8302 29.3143H39.3737Z" fill="#111111"/>
<path fill-rule="evenodd" clip-rule="evenodd" d="M40.2867 31.4286C40.572 31.5429 40.4008 31.6571 40.4579 31.7143C40.515 31.7143 40.515 31.7143 40.515 31.6571C40.572 31.5429 40.572 31.4286 40.6291 31.3714C40.6861 31.3143 40.6861 31.2 40.7432 31.0857C40.7432 31.0857 40.8003 31.0286 40.7432 30.9714C40.6291 30.9143 40.6291 31.2 40.4008 31.1429L39.0884 30.6857C38.8031 30.5714 38.9743 30.4571 38.8601 30.4H38.8031C38.8031 30.4571 38.746 30.5714 38.746 30.6857C38.6889 30.8571 38.6319 30.9714 38.6319 31.0286C38.6319 31.0857 38.6319 31.0857 38.6319 31.1429C38.746 31.2 38.6889 30.8571 39.0313 30.9714L40.2867 31.4286Z" fill="#111111"/>
<path fill-rule="evenodd" clip-rule="evenodd" d="M39.4878 31.4286C38.9172 31.2 38.4607 31.4286 38.2895 31.8857C38.0042 32.6286 38.6319 33.0286 39.0313 33.1429C39.6019 33.3714 40.1155 33.1429 40.2867 32.6857C40.4008 32.1143 40.0584 31.6 39.4878 31.4286ZM40.1155 32.5714C40.0014 32.8571 39.6019 33.0286 38.9743 32.8C38.5177 32.6286 38.1754 32.3429 38.3466 31.9429C38.5177 31.5429 39.1454 31.6 39.5449 31.7143C39.9443 31.8857 40.2867 32.1714 40.1155 32.5714Z" fill="#111111"/>
<path d="M17.975 37.8857C17.9179 37.6571 17.8608 37.4857 17.6896 37.2C17.4043 36.7429 17.2902 36.5714 16.8337 36C16.7766 35.9429 16.7766 35.9428 16.7196 35.8857L17.1761 35.3714L17.2331 35.3143L17.3473 35.2571V35.2L17.119 34.8C16.8337 34.3429 16.6054 34 16.3201 33.4286C15.9207 32.5714 15.7495 32.0571 15.5212 31.1428L15.2359 31.2L14.437 31.4286C13.2387 28.3428 12.8963 25.6571 13.4099 23.2L15.1218 23.9429L15.35 24.0571L15.4071 23.8286L16.206 20.8L16.2631 20.6857H16.206L16.0919 20.5714L15.35 20.1714L15.6924 18.7428L15.8065 18.6286L15.6354 18.5143L12.3257 16.4L12.2116 16.5714L12.0404 16.4571C10.2143 19.0286 9.1872 22.1714 9.13014 25.4286C9.01601 28.8 9.92902 32 11.755 34.7428L11.8692 34.9143L12.0404 34.8L13.0675 34.1714C13.1246 34.3428 13.2958 34.6286 13.4099 34.8C13.4669 34.9143 13.524 34.9714 13.5811 35.0857L12.611 35.7143L12.7251 35.8857H12.5539L12.6681 36.0571C13.2958 37.1429 14.8365 39.7714 16.3772 39.2571C16.8337 39.0857 17.119 38.8571 17.4043 38.6286C17.5755 38.4571 17.7467 38.3429 17.975 38.1714L18.0891 38.1143L18.032 37.9429L17.975 37.8857ZM16.4913 35.5429C16.2631 35.2571 16.0348 34.9143 15.8636 34.5714L16.7766 35.2L16.4913 35.5429ZM15.0077 31.6571L14.8365 32.3428C14.7794 32.1714 14.6653 32 14.6082 31.8286L15.0077 31.6571ZM15.1218 23.4857L13.524 22.8C13.524 22.6857 13.5811 22.5714 13.6381 22.4571L14.6082 22.5714H14.7223L14.7794 22.5143L15.6354 21.4286L15.1218 23.4857ZM13.7523 22.1143C14.0946 21.2 14.4941 20.2857 15.1218 19.4286L14.4941 22.1714L13.7523 22.1143ZM15.7495 20.8L15.0077 21.7143L15.2359 20.5714L15.7495 20.8ZM11.9262 34.2857C10.2143 31.6571 9.35839 28.5714 9.47252 25.3714C9.52958 22.2857 10.5567 19.2571 12.2116 16.8L15.1788 18.6857C12.2116 22.4571 12.0404 27.0286 14.5512 32.6857L11.9262 34.2857ZM13.3528 33.8857L14.8935 32.9143L15.0077 32.8L15.2359 31.8286C15.4071 32.4 15.5783 32.8571 15.8636 33.5429C16.0348 33.9429 16.206 34.2286 16.4342 34.5714L15.35 33.8286H15.4071L15.2359 33.9429L13.8664 34.8571C13.8093 34.7429 13.7523 34.6857 13.6952 34.5714C13.5811 34.3428 13.4099 34 13.3528 33.8857ZM17.119 38.3429C16.8337 38.5714 16.6054 38.7429 16.206 38.9143C14.9506 39.3143 13.4669 36.8571 12.8963 35.8857L15.2359 34.3428C15.5783 34.9714 16.0919 35.7143 16.4913 36.2286C16.9478 36.8 17.0619 36.9714 17.3473 37.3714C17.5184 37.6 17.5184 37.7143 17.6326 37.9429C17.4614 38.1143 17.2902 38.2286 17.119 38.3429ZM42.7404 25.3714C42.6834 22.1714 41.5992 18.9714 39.8302 16.4L39.659 16.5143L39.5449 16.3428L36.2352 18.4571L36.064 18.5714L36.1782 18.6857L36.5205 20.1143L35.7216 20.5714L35.5505 20.6286H35.4934L35.5505 20.7428L36.3493 23.7714L36.4064 24L36.5776 23.8857L38.2895 23.1428C38.8031 25.6 38.5177 28.2857 37.3194 31.3714L36.5776 31.2L36.2923 31.1428C36.064 32 35.8928 32.5143 35.4934 33.4286C35.2081 34 34.9798 34.3429 34.6945 34.8L34.4663 35.2L34.6374 35.3714L35.0939 35.8857C35.0939 35.9428 35.0369 35.9429 35.0369 36C34.6374 36.4571 34.5804 36.5714 34.2951 36.8571L34.0668 37.0857C33.7244 37.3143 33.5532 37.6571 33.5532 37.9429C33.5532 38.1143 33.6674 38.2286 33.8386 38.2857C34.238 38.4571 34.3521 38.4571 34.4092 38.5143C34.4663 38.5143 34.5233 38.5143 34.5804 38.5714L34.9798 38.6286C35.6075 38.7429 35.6646 38.7429 36.4635 38.5143C37.8901 38.0571 38.746 36.2286 38.746 36.1143L38.5748 36.0571L38.6889 35.8857L38.0042 35.4857C38.1183 35.3143 38.3466 34.9714 38.4607 34.7428C38.5748 34.5143 38.746 34.2286 38.8031 34.1143L39.8302 34.7428L40.0014 34.8571L40.1155 34.6857C41.8845 31.9428 42.7975 28.7429 42.7404 25.3714ZM36.5776 20.5714L36.8058 21.7143L36.1211 20.8571L36.5776 20.5714ZM36.6917 19.4286C37.2624 20.2857 37.7189 21.2 38.0612 22.1143L37.3194 22.2286L36.6917 19.4286ZM36.6917 23.4857L36.1782 21.4857L37.0341 22.5714L37.0912 22.6286H37.2053L38.1754 22.5143C38.2324 22.6286 38.2324 22.7428 38.2895 22.8571L36.6917 23.4857ZM37.2053 31.7714C37.1482 31.9428 37.0341 32.1143 36.977 32.2857L36.8058 31.6571L37.2053 31.7714ZM35.0369 35.3143L35.7216 34.9143C35.5505 35.2 35.4363 35.3714 35.2651 35.6L35.0369 35.3143ZM38.3466 36.1143C38.1183 36.5714 37.3765 37.8286 36.3493 38.1143C35.6646 38.3428 35.6075 38.3429 35.0369 38.2286L34.6945 38.1714C34.5804 38.1143 34.5233 38.1143 34.5233 38.1143C34.4663 38.1143 34.3521 38.0571 34.0097 37.9429C33.9527 37.9429 33.9527 37.8857 33.9527 37.8857C33.9527 37.7714 34.0668 37.5429 34.2951 37.3714L34.5233 37.1429C34.8086 36.8571 34.9228 36.7429 35.3222 36.2857C35.6646 35.8286 35.9499 35.5429 36.2923 34.9143L38.3466 36.1143ZM38.1183 34.5714C38.0042 34.8 37.7759 35.0857 37.6618 35.3143L36.2923 34.4571L36.1211 34.3428L35.151 34.8571C35.3793 34.4571 35.6075 34.1143 35.8358 33.6C36.1211 32.9143 36.2923 32.4571 36.4635 31.8857L36.6917 32.8571L36.8629 32.9714L38.4036 33.9429C38.4036 34 38.2895 34.3428 38.1183 34.5714ZM39.8873 34.2857L37.2624 32.6857C39.7731 27.0286 39.6019 22.4571 36.6347 18.6857L39.602 16.8C41.3139 19.2571 42.2839 22.2857 42.341 25.3714C42.4551 28.6286 41.5992 31.6571 39.8873 34.2857Z" fill="#111111"/>
<path fill-rule="evenodd" clip-rule="evenodd" d="M27.048 15.7143C27.048 15.3143 26.5915 15.0857 25.9638 15.0857C25.3361 15.0857 24.8796 15.3143 24.8226 15.7143C24.8226 16.1143 25.2791 16.3429 25.9068 16.3429C26.5345 16.2857 27.048 16.1143 27.048 15.7143Z" fill="#111111"/>
<path fill-rule="evenodd" clip-rule="evenodd" d="M20.0292 16.2286C19.9722 15.8286 20.4287 15.5429 20.9993 15.4286C21.5699 15.3143 22.1406 15.4857 22.1976 15.8857C22.2547 16.2857 21.8553 16.5714 21.2276 16.6857C20.5999 16.7429 20.0863 16.6286 20.0292 16.2286Z" fill="#111111"/>
<path fill-rule="evenodd" clip-rule="evenodd" d="M13.0104 31.6C13.2958 31.4286 13.2958 31.7714 13.4099 31.7143C13.4669 31.7143 13.4669 31.6571 13.4099 31.6C13.3528 31.4857 13.2958 31.4286 13.2387 31.3143C13.1816 31.1429 13.1246 31.0857 13.0675 30.9714C13.0104 30.9143 13.0104 30.8571 12.9534 30.9143C12.8963 30.9714 13.1246 31.2 12.7822 31.3714L11.6409 31.9429C11.5268 32 11.4697 32 11.4697 31.8857L11.3556 31.7143C11.2415 31.4857 11.5268 31.3714 11.4697 31.3143C11.4127 31.2571 11.3556 31.3143 11.2985 31.3714L11.2415 31.4286L11.1844 31.4857C11.2985 31.7143 11.3556 31.8286 11.5268 32.1714C11.698 32.5143 11.755 32.6286 11.8692 32.8571C11.8692 32.9143 11.9262 32.8571 11.9262 32.8571L12.2686 32.7429C12.3257 32.7429 12.3827 32.7429 12.3257 32.6857C12.2686 32.5714 11.9833 32.8 11.8692 32.5714L11.755 32.4C11.698 32.2857 11.698 32.2857 11.8121 32.2286L13.0104 31.6Z" fill="#111111"/>
<path fill-rule="evenodd" clip-rule="evenodd" d="M11.0703 30.2857C10.8991 30.3429 10.8991 30.3429 10.785 30.0571C10.6708 29.6 11.0132 29.7143 10.9562 29.6C10.9562 29.5429 10.842 29.6 10.842 29.6L10.5567 29.6571L10.4997 29.7143C10.5567 29.9429 10.6138 30.1143 10.6708 30.2857C10.785 30.6286 10.842 30.8571 10.842 30.9143C10.842 30.9714 10.8991 30.9714 10.8991 30.9714C11.0132 30.9143 10.842 30.6857 11.0703 30.6286L12.3257 30.2857C12.6681 30.1714 12.5539 30.4 12.6681 30.4C12.6681 30.4 12.6681 30.4 12.6681 30.3429C12.611 30.2286 12.611 30.1143 12.5539 30.0571C12.4969 29.9429 12.4969 29.7714 12.3827 29.4286C12.3257 29.2571 12.0404 29.1429 11.8692 29.2C11.8121 29.2 11.8121 29.2571 11.8121 29.2571C11.8121 29.3714 12.1545 29.2 12.3257 29.8286C12.3827 30 12.2686 30 12.0974 30.0571L11.755 30.1714C11.5839 30.2286 11.5839 30.2286 11.5268 30.1143L11.4697 29.9429C11.4127 29.7143 11.698 29.6571 11.698 29.6C11.698 29.5429 11.5839 29.6 11.5268 29.6L11.0703 29.7714C11.0132 29.7714 11.0132 29.8286 11.0132 29.8286C11.0132 29.8857 11.2985 29.8286 11.3556 30L11.4127 30.1714C11.4697 30.2857 11.4127 30.2857 11.2985 30.3429L11.0703 30.2857Z" fill="#111111"/>
<path fill-rule="evenodd" clip-rule="evenodd" d="M11.0132 28.9143C11.2985 28.8571 11.5268 28.6286 11.4697 28.3429C11.4127 28.1143 11.1844 27.8857 11.1274 27.9429C11.0703 27.9429 11.0703 27.9429 11.0703 28C11.0703 28.0571 11.2415 28.1143 11.2415 28.2857C11.2985 28.5143 11.0132 28.6857 10.7279 28.7429C10.5567 28.7429 10.3285 28.7429 10.3285 28.5714C10.3285 28.4571 10.3855 28.4 10.4997 28.3429C10.4997 28.3429 10.5567 28.3429 10.5567 28.2857C10.5567 28.2286 10.3855 28.1143 10.3855 28.1143C10.2143 28.1143 10.2143 28.4 10.2143 28.4571C10.3285 28.8 10.6708 28.9714 11.0132 28.9143Z" fill="#111111"/>
<path fill-rule="evenodd" clip-rule="evenodd" d="M10.4426 25.7714C10.1573 25.7714 10.2714 25.6 10.1573 25.6C10.1573 25.6 10.1002 25.6 10.1002 25.6571C10.1002 25.7714 10.1002 25.8857 10.1002 26C10.1002 26.1714 10.1002 26.2286 10.1002 26.3429C10.1002 26.4 10.1002 26.4 10.1573 26.4C10.2143 26.4 10.1573 26.1143 10.4426 26.1143H10.842C10.8991 26.1143 10.9562 26.1143 10.9562 26.1714V26.9143C10.9562 26.9714 10.8991 26.9714 10.842 26.9714H10.3855C10.1573 26.9714 10.2143 26.8 10.1573 26.8C10.1573 26.8 10.1002 26.8 10.1002 26.8571C10.1002 26.9143 10.1002 27.0286 10.1002 27.2C10.1002 27.3143 10.1002 27.4286 10.1002 27.4857C10.1002 27.5429 10.1002 27.6 10.1573 27.6C10.2714 27.6 10.1573 27.3143 10.4426 27.3143H11.698C12.0404 27.3143 11.9262 27.5429 12.0404 27.5429C12.0974 27.5429 12.0974 27.5429 12.0974 27.4857C12.0974 27.3714 12.0974 27.2572 12.0974 27.1429C12.0974 26.9714 12.0974 26.8572 12.0974 26.8C12.0974 26.7429 12.0974 26.7429 12.0404 26.7429C11.9262 26.7429 12.0404 27.0286 11.698 27.0286H11.2415C11.1273 27.0286 11.0703 27.0286 11.0703 26.9143V26.2286C11.0703 26.1143 11.1273 26.1143 11.2415 26.1143H11.755C12.0404 26.1143 11.9262 26.2857 12.0404 26.2857C12.0404 26.2857 12.0974 26.2857 12.0974 26.2286C12.0974 26.1143 12.0974 26 12.0974 25.8857C12.0974 25.7714 12.0974 25.6571 12.0974 25.5429C12.0974 25.4857 12.0974 25.4857 12.0404 25.4857C11.9262 25.4857 12.0404 25.7714 11.698 25.7714H10.4426Z" fill="#111111"/>
<path fill-rule="evenodd" clip-rule="evenodd" d="M11.755 25.0286C12.0404 25.0857 11.9833 25.3143 12.0974 25.3143C12.1545 25.3143 12.1545 25.2571 12.1545 25.2571C12.1545 25.2 12.1545 25.1428 12.1545 25.0286C12.1545 24.9143 12.1545 24.8571 12.2116 24.7428C12.2116 24.6857 12.2116 24.6286 12.2116 24.6286C12.0974 24.6286 12.2116 24.9714 11.698 24.9143L10.7279 24.8H10.6708C10.6708 24.8 10.6708 24.8 10.7279 24.7428L12.2686 23.7143L12.3257 23.6571C12.3257 23.6 12.3257 23.6 12.2686 23.6L10.6708 23.4286C10.3855 23.3714 10.4426 23.2 10.3855 23.2C10.3855 23.2 10.3285 23.2 10.3285 23.2571C10.3285 23.2571 10.3285 23.3714 10.3285 23.5429C10.3285 23.7143 10.2714 23.7714 10.2714 23.8286C10.2714 23.8857 10.2714 23.8857 10.3285 23.8857C10.4426 23.8857 10.3855 23.6 10.6708 23.6L11.5839 23.7143C11.6409 23.7143 11.698 23.7143 11.698 23.7714L11.6409 23.8286L10.2714 24.6286C10.2143 24.6857 10.2143 24.6286 10.2143 24.6857C10.2143 24.8 10.2143 24.9143 10.2143 24.9714C10.2143 25.0286 10.2143 25.0857 10.2143 25.0857C10.2143 25.1428 10.2143 25.1428 10.2714 25.1428C10.3855 25.1428 10.2714 24.8571 10.785 24.9143L11.755 25.0286Z" fill="#111111"/>
<path fill-rule="evenodd" clip-rule="evenodd" d="M10.842 22.1714C10.5567 22.1143 10.7279 21.9429 10.6138 21.9429C10.5567 21.9429 10.5567 21.9429 10.5567 22C10.4996 22.1143 10.4996 22.2286 10.4996 22.3429C10.4996 22.4571 10.4426 22.5143 10.4426 22.6286C10.4426 22.6286 10.4426 22.6857 10.4426 22.7429C10.5567 22.7429 10.4996 22.4571 10.785 22.5143L12.0974 22.8C12.3827 22.8571 12.2686 23.0286 12.3257 23.0286H12.3827C12.3827 22.9714 12.3827 22.8571 12.4398 22.7429C12.4969 22.5714 12.4969 22.4571 12.5539 22.3429C12.5539 22.2857 12.5539 22.2857 12.5539 22.2286C12.4398 22.2286 12.5539 22.5143 12.2115 22.4571L10.842 22.1714Z" fill="#111111"/>
<path fill-rule="evenodd" clip-rule="evenodd" d="M11.4127 19.8286C11.4127 19.8286 11.4127 19.8857 11.4127 19.8286C11.3556 19.8857 11.4697 19.9429 11.4697 19.9429C11.4697 20 11.2415 20.1143 11.1274 20.4C10.8991 20.9714 11.3556 21.4286 11.8121 21.6C12.0404 21.6572 12.7251 21.8286 13.0104 21.1429C13.1816 20.6286 12.8963 20.2286 12.7822 20.2286H12.7251C12.7251 20.2857 12.9534 20.5714 12.8392 20.9143C12.6681 21.3714 12.0974 21.3714 11.698 21.2C11.3556 21.0857 11.0703 20.7429 11.1844 20.4C11.2985 20.1143 11.5839 20 11.8692 20C11.9262 20 11.9833 20 11.9833 19.9429C11.9833 19.8857 11.9262 19.8857 11.9262 19.8857L11.4127 19.8286Z" fill="#111111"/>
<path fill-rule="evenodd" clip-rule="evenodd" d="M17.5755 44.3429C17.5755 44.1714 17.5755 44.1143 17.5184 44.1143C17.4614 44.0571 17.4043 44.1714 17.2902 44.2286L14.2658 46.7429C13.9805 46.9714 13.7523 46.8 13.6952 46.9143C13.6381 46.9714 13.7523 47.0286 13.8093 47.0286C13.9805 47.0857 14.0946 47.1429 14.2658 47.2571C14.437 47.3143 14.5512 47.4286 14.7223 47.5429C14.8365 47.6 14.9506 47.7143 15.0077 47.6C15.0647 47.4286 14.4941 47.2571 14.6653 46.8571C14.7223 46.7429 14.8935 46.5714 15.0077 46.5143C15.293 46.2286 15.4071 46.2286 15.5212 46.2857L16.4913 46.8C16.6054 46.8571 16.6054 46.9143 16.5484 47.4286C16.5484 47.6 16.4913 47.7143 16.4342 47.8286C16.2631 48.1714 15.9207 47.8857 15.8636 48.0571C15.8065 48.1143 15.9207 48.1714 15.9777 48.2286C16.1489 48.2857 16.3201 48.4 16.5484 48.5143C16.8907 48.6857 17.0049 48.8 17.1761 48.8571C17.2902 48.9143 17.3473 48.9714 17.4043 48.8571C17.5184 48.6857 17.119 48.7429 17.119 48.2857L17.5755 44.3429ZM16.7766 46.2857C16.7766 46.3429 16.7766 46.4571 16.7196 46.5143C16.6625 46.5714 16.6054 46.5143 16.5484 46.4571L15.8636 46.1143C15.7495 46.0571 15.6924 46.0571 15.7495 46C15.8065 45.9429 15.8636 45.8857 15.9207 45.8286L16.7766 45.0857C16.8337 45.0286 16.8337 45.0286 16.8907 45.0286C16.8907 45.0286 16.8907 45.0286 16.8907 45.0857L16.7766 46.2857Z" fill="#111111"/>
<path fill-rule="evenodd" clip-rule="evenodd" d="M41.485 44.3429C41.3709 44.1714 41.2568 44.5714 40.8574 44.3429L37.4336 42.4C37.2624 42.2857 37.2624 42.2857 37.2053 42.3428C37.1482 42.4 37.2053 42.5143 37.2053 42.5714L38.2324 46.3429C38.3466 46.6857 38.0613 46.8571 38.1754 46.9714C38.2324 47.0286 38.2895 46.9714 38.3466 46.9143C38.4607 46.8 38.5748 46.6857 38.746 46.5714C38.9172 46.4571 39.0313 46.4 39.2025 46.2857C39.3166 46.2286 39.4878 46.1143 39.3737 46.0571C39.2596 45.9429 38.8601 46.4 38.5748 46.0571C38.4607 45.9429 38.4036 45.7143 38.4036 45.6C38.2895 45.2 38.3466 45.1429 38.4036 45.0286L39.2596 44.3429C39.3737 44.2286 39.4308 44.2857 39.8873 44.5143C40.0585 44.6286 40.1155 44.6857 40.2297 44.7429C40.4579 45.0286 40.1155 45.2 40.2297 45.3714C40.2867 45.4286 40.3438 45.3714 40.4008 45.3143C40.515 45.2 40.6862 45.0857 40.8574 44.9143C41.1427 44.6857 41.3139 44.6286 41.428 44.4571C41.485 44.4 41.5421 44.4 41.485 44.3429ZM38.8601 44.2286L38.2324 44.6857C38.1754 44.7428 38.1183 44.8 38.0613 44.7429C38.0042 44.6857 38.0042 44.6286 38.0042 44.5143L37.7189 43.4286C37.7189 43.3714 37.7189 43.3143 37.7189 43.3143C37.7189 43.3143 37.7189 43.3143 37.7759 43.3143L38.8031 43.8857C38.8601 43.9429 38.9172 43.9429 38.9743 44C39.0313 44.1143 38.9743 44.1143 38.8601 44.2286Z" fill="#111111"/>
<path fill-rule="evenodd" clip-rule="evenodd" d="M22.1976 11.0286L22.0835 10.4571C22.0264 10.2286 21.7982 10.1143 21.5699 10.1143L21.1134 10.2857L20.9993 9.77143C20.9422 9.54286 20.714 9.37143 20.4857 9.42857L19.9151 9.54286C19.6868 9.6 19.5157 9.82857 19.5727 10.0571L19.6868 10.5714L19.2303 10.6857C19.0021 10.7429 18.8309 10.9714 18.888 11.2L19.0021 11.7714C19.0592 12 19.2874 12.1143 19.5157 12.1143L21.8553 11.6C22.0835 11.4857 22.2547 11.2571 22.1976 11.0286ZM20.714 11.7714C20.3716 11.8286 20.0863 11.6571 19.9722 11.3143C19.9151 10.9714 20.0863 10.6857 20.4287 10.5714C20.771 10.5143 21.0564 10.6857 21.1705 11.0286C21.2276 11.3714 21.0564 11.6571 20.714 11.7714Z" fill="#111111"/>
<path fill-rule="evenodd" clip-rule="evenodd" d="M27.1051 9.6H26.6486V9.08571C26.6486 8.85714 26.4774 8.68571 26.2491 8.68571H25.6785C25.4502 8.68571 25.2791 8.85714 25.2791 9.08571V9.6H24.7655C24.5372 9.6 24.366 9.77143 24.366 10V10.5714C24.366 10.8 24.5372 10.9714 24.7655 10.9714H27.1621C27.3904 10.9714 27.5616 10.8 27.5616 10.5714V10C27.5045 9.77143 27.3333 9.6 27.1051 9.6ZM25.9068 10.9714C25.5644 10.9714 25.2791 10.6857 25.2791 10.3429C25.2791 10 25.5644 9.71429 25.9068 9.71429C26.2491 9.71429 26.5344 10 26.5344 10.3429C26.4774 10.6857 26.2491 10.9714 25.9068 10.9714Z" fill="#111111"/>
<path fill-rule="evenodd" clip-rule="evenodd" d="M32.5832 10.6857L32.1267 10.5714L32.2408 10.0571C32.2978 9.82857 32.1267 9.6 31.8984 9.54286L31.3278 9.42857C31.0995 9.37143 30.8713 9.54286 30.8142 9.77143L30.7001 10.2857L30.2436 10.1714C30.0153 10.1143 29.7871 10.2857 29.73 10.5143L29.6159 11.0857C29.5588 11.3143 29.73 11.5429 29.9582 11.6L32.2978 12.1143C32.5261 12.1714 32.7544 12 32.8114 11.7714L32.9255 11.2C32.9255 10.9143 32.8114 10.7429 32.5832 10.6857ZM31.8413 11.3143C31.7843 11.6571 31.4419 11.8286 31.0995 11.7714C30.7571 11.7143 30.5859 11.3714 30.643 11.0286C30.7001 10.6857 31.0425 10.5143 31.3848 10.5714C31.6701 10.6286 31.8984 10.9714 31.8413 11.3143Z" fill="#111111"/>
<path fill-rule="evenodd" clip-rule="evenodd" d="M36.5776 11.7143C36.4064 11.6 36.1211 11.6571 36.007 11.8857L35.7216 12.3429L35.3222 12.1143C35.151 12 34.8657 12.0571 34.7516 12.2857L34.4663 12.8C34.3521 12.9714 34.4092 13.2571 34.6374 13.3714L35.5505 13.9429C35.7216 14.0571 36.007 14 36.1211 13.7714L36.4064 13.3143C36.5205 13.0857 36.6347 12.9143 36.6347 12.9143L37.0912 12.1143L36.5776 11.7143ZM35.6075 13.7143C35.3222 13.5429 35.2081 13.2 35.3793 12.9143C35.5505 12.6286 35.8928 12.5143 36.1782 12.6857L35.6075 13.7143Z" fill="#111111"/>
<path fill-rule="evenodd" clip-rule="evenodd" d="M17.4043 12.6857L17.119 12.1714C17.0049 12 16.7196 11.8857 16.5484 12L16.1489 12.2286L15.8636 11.7714C15.7495 11.6 15.4642 11.4857 15.293 11.6L14.7794 12L15.2359 12.8C15.2359 12.8 15.35 12.9714 15.4642 13.2L15.7495 13.6572C15.8636 13.8286 16.1489 13.9429 16.3201 13.8286L17.2331 13.2572C17.4614 13.1429 17.5184 12.8572 17.4043 12.6857ZM16.263 13.7143L15.6353 12.6857C15.9207 12.5143 16.263 12.6286 16.4342 12.9143C16.6054 13.2 16.5484 13.5429 16.263 13.7143Z" fill="#111111"/>
<path fill-rule="evenodd" clip-rule="evenodd" d="M12.2116 11.3714C12.1545 11.3143 12.1545 11.3143 12.0974 11.3714C12.0404 11.4286 12.0404 11.4857 12.0404 11.4857C12.0404 11.5429 11.9833 11.6 11.8692 11.5429C11.0703 11.3143 10.1573 11.0286 10.1573 11.0286C10.1002 10.9714 10.1573 10.8571 10.1573 10.6286C10.1573 10.4571 10.0431 10.1714 9.75783 9.94285C9.52958 9.77142 8.84482 9.25714 8.16006 10.0571C7.9318 10.2857 7.76061 10.5714 7.53236 10.8C7.36117 11.0286 7.30411 11.0286 7.13292 11.2C7.07585 11.2571 7.07585 11.3143 7.13292 11.3143C7.30411 11.4286 7.4753 10.9143 7.98887 11.3714L9.98608 13.0857C10.5567 13.6 10.1573 13.7143 10.2714 13.8857C10.3855 13.9429 10.3855 13.8857 10.4426 13.8286C10.6138 13.6571 10.7279 13.4286 10.8991 13.2571C11.0132 13.0857 11.1273 13.0286 11.1844 12.9714C11.2415 12.9143 11.2415 12.8571 11.2415 12.8C11.0703 12.6286 10.9562 13.2 10.4997 12.7429L9.70077 12.1714C9.52958 12.0571 9.47251 12 9.6437 11.8286C9.81489 11.6571 9.87196 11.6 10.1573 11.7143L11.1273 12.0571C11.4697 12.1714 11.8692 12.2857 12.0974 12C12.2686 11.8286 12.3827 11.5429 12.2116 11.3714ZM9.52958 11.6C9.41545 11.7143 9.30132 11.8286 9.1872 11.7714L8.27418 10.9714C7.98887 10.7429 8.10299 10.6286 8.21712 10.5143C8.5595 10.1714 9.01601 10.2286 9.47251 10.6286C9.75783 10.8 9.98608 11.0286 9.52958 11.6Z" fill="#111111"/>
<path fill-rule="evenodd" clip-rule="evenodd" d="M21.7411 6.62857C21.6841 6.45714 21.5129 6.74285 21.2276 6.4L18.888 3.31428C18.7738 3.14285 18.7738 3.14285 18.7168 3.14285C18.6597 3.14285 18.6597 3.25714 18.6597 3.37142L18.5456 7.2C18.5456 7.54285 18.3173 7.6 18.3173 7.71428C18.3173 7.77142 18.4315 7.77142 18.4885 7.71428C18.6026 7.65714 18.7738 7.6 18.888 7.54285C19.0591 7.48571 19.1733 7.48571 19.3445 7.42857C19.4586 7.37142 19.5727 7.37142 19.5727 7.25714C19.5157 7.08571 19.0591 7.37142 18.945 6.97142C18.8309 6.91428 18.8309 6.68571 18.8309 6.57142C18.8309 6.17142 18.888 6.11428 19.0021 6.05714L19.9151 5.77142C20.0292 5.71428 20.0863 5.77142 20.3716 6.17142C20.4857 6.28571 20.5428 6.4 20.5999 6.51428C20.714 6.85714 20.3716 6.91428 20.4287 7.08571C20.4287 7.14285 20.4857 7.14285 20.5999 7.08571C20.714 7.02857 20.8852 6.97143 21.1134 6.91428C21.3987 6.8 21.5699 6.8 21.6841 6.74285C21.7411 6.74285 21.7982 6.74285 21.7411 6.62857ZM19.6298 5.54285L19.0021 5.71428C18.945 5.71428 18.8309 5.77142 18.8309 5.71428C18.8309 5.65714 18.8309 5.54285 18.8309 5.48571V4.34285C18.8309 4.28571 18.8309 4.28571 18.8309 4.22857C18.8309 4.22857 18.8309 4.22857 18.888 4.28571L19.5727 5.2C19.6298 5.25714 19.6868 5.31428 19.6868 5.37142C19.801 5.48571 19.7439 5.48571 19.6298 5.54285Z" fill="#111111"/>
<path fill-rule="evenodd" clip-rule="evenodd" d="M49.8163 24.9143C49.8163 24.8571 49.7022 24.8571 49.588 24.8L45.8789 23.8857C45.5365 23.7714 45.5365 23.5429 45.4224 23.5429C45.3653 23.5429 45.3653 23.6 45.3653 23.7143C45.3653 23.8286 45.4224 24 45.4224 24.1143C45.4224 24.2857 45.4224 24.4 45.4224 24.5714C45.4224 24.6857 45.4224 24.8 45.5365 24.8C45.7077 24.8 45.5365 24.2857 45.993 24.2286C46.1072 24.2286 46.3354 24.2857 46.4495 24.2857C46.849 24.3429 46.9061 24.4571 46.9061 24.5143L47.0202 25.4286C47.0202 25.5429 46.9631 25.6 46.5066 25.7714C46.3354 25.8286 46.2213 25.8857 46.1072 25.8857C45.7648 25.9429 45.7648 25.6 45.5936 25.6C45.4795 25.6 45.5365 25.6571 45.5365 25.7714C45.5365 25.8857 45.5936 26.0571 45.5936 26.2857C45.6507 26.6286 45.5936 26.7429 45.6507 26.9143C45.6507 27.0286 45.6507 27.0857 45.7648 27.0857C45.936 27.0857 45.7077 26.8571 46.1072 26.6286L49.6451 24.9714C49.8163 24.9714 49.8163 24.9143 49.8163 24.9143ZM48.618 24.8571L47.5908 25.3714C47.5338 25.4286 47.4767 25.4286 47.3626 25.4286C47.3055 25.4286 47.3055 25.3714 47.3055 25.2571L47.2484 24.6286C47.2484 24.5143 47.2484 24.4571 47.3055 24.4571C47.3626 24.4571 47.4767 24.4571 47.5338 24.5143L48.618 24.8C48.675 24.8 48.675 24.8 48.618 24.8571C48.675 24.8571 48.675 24.8571 48.618 24.8571Z" fill="#111111"/>
<path fill-rule="evenodd" clip-rule="evenodd" d="M41.1997 21.5429C41.0285 20.9714 40.4579 20.8 39.8302 21.0286C39.2596 21.2 38.9742 21.6571 39.1454 22.1143C39.3737 22.8571 40.1155 22.8 40.515 22.6857C41.1427 22.5143 41.3709 22 41.1997 21.5429ZM40.3438 22.4571C39.8873 22.6286 39.4878 22.5714 39.3166 22.1714C39.1454 21.7714 39.7161 21.4286 40.1155 21.2571C40.515 21.1428 40.9144 21.1428 41.0856 21.5429C41.1997 21.8286 40.9715 22.2286 40.3438 22.4571Z" fill="#111111"/>
<path fill-rule="evenodd" clip-rule="evenodd" d="M40.4008 19.6571C40.3438 19.4857 40.2297 19.3714 40.1726 19.2C40.1155 19.0286 40.1155 19.0286 40.0585 18.9143C40.0585 18.8571 40.0014 18.8571 40.0014 18.8571C39.8873 18.9143 40.1155 19.0857 39.8302 19.2571L38.6319 19.8286C38.2895 20 38.2895 19.7714 38.2324 19.8286C38.1754 19.8286 38.2324 19.8857 38.2324 19.9429C38.2895 20.0571 38.3466 20.1714 38.4036 20.2857C38.4607 20.4 38.4607 20.4571 38.4607 20.4571C38.4607 20.5143 38.5178 20.5143 38.5178 20.5143C38.6319 20.4572 38.4036 20.2857 38.6889 20.1714L39.1454 19.9429C39.2596 19.8857 39.2596 19.8857 39.3166 20C39.3737 20.1143 39.3737 20.1714 39.2596 20.2857L38.9172 20.6857C38.8031 20.8 38.6889 20.9714 38.746 21.1429C38.8031 21.2572 38.9172 21.3714 38.9743 21.3143C38.9743 21.3143 39.0313 21.2572 38.9743 21.2572L38.9172 21.2C38.9172 21.2 38.8601 21.1429 38.9172 21.0857C39.2025 20.7429 39.4878 20.4 39.4878 20.4C39.4878 20.4 39.5449 20.4571 39.659 20.4571C39.7731 20.5143 39.8873 20.5143 40.0585 20.4571C40.2867 20.4 40.6291 20.1714 40.4008 19.6571ZM39.9443 20.2286C39.7731 20.2857 39.659 20.3429 39.4878 20C39.4308 19.9429 39.4308 19.8286 39.4878 19.8286L40.0014 19.6C40.1726 19.5429 40.1726 19.6 40.2297 19.6571C40.3438 19.8857 40.2297 20.1143 39.9443 20.2286Z" fill="#111111"/>
<path fill-rule="evenodd" clip-rule="evenodd" d="M41.8274 25.0286C41.7133 25.0286 41.8274 25.3143 41.485 25.2571L40.1726 25.1428C39.8302 25.0857 39.9443 24.9143 39.8302 24.9143C39.7731 24.9143 39.7731 24.9714 39.7731 24.9714C39.7731 25.0857 39.7731 25.2 39.7731 25.3714C39.7731 25.4857 39.7161 25.5428 39.7161 25.6C39.7161 25.6571 39.7161 25.6571 39.7731 25.6571C39.8873 25.6571 39.7731 25.4286 40.1155 25.4286L40.6291 25.4857C40.7432 25.4857 40.7432 25.4857 40.7432 25.6C40.7432 25.7143 40.6862 25.7714 40.572 25.8286L40.0585 26C39.8873 26.0571 39.659 26.1143 39.659 26.3428C39.659 26.4571 39.7161 26.6286 39.7731 26.6286C39.7731 26.6286 39.8302 26.6286 39.8302 26.5714V26.5143C39.8302 26.5143 39.8302 26.4571 39.8873 26.4C40.2867 26.2286 40.7432 26.1143 40.7432 26.1143C40.8003 26.1143 40.8003 26.1714 40.8573 26.2857C40.9144 26.3428 41.0285 26.4571 41.1997 26.4571C41.3138 26.4571 41.7704 26.4571 41.8274 25.9428C41.8274 25.7714 41.8274 25.6 41.8845 25.4286C41.8274 25.2 41.8274 25.2 41.8274 25.0286ZM41.6562 25.7143C41.6562 25.9428 41.428 26.0571 41.0856 26.0571C40.9144 26.0571 40.7432 26 40.8003 25.6571C40.8003 25.6 40.8003 25.4857 40.9144 25.4857L41.485 25.5428C41.6562 25.6 41.6562 25.6571 41.6562 25.7143Z" fill="#111111"/>
<path fill-rule="evenodd" clip-rule="evenodd" d="M14.2658 18.5714C14.2088 18.5143 14.2088 18.6857 13.9805 18.6857L12.1545 18.4571C12.0404 18.4571 12.0404 18.4571 12.0404 18.4571C12.0404 18.4571 12.0404 18.5143 12.0974 18.5714L13.2387 20C13.3528 20.1143 13.2958 20.2286 13.2958 20.2857C13.3528 20.2857 13.3528 20.2857 13.3528 20.2286C13.4099 20.1714 13.4099 20.1143 13.4669 20.0571C13.524 20 13.524 19.9429 13.5811 19.8857C13.5811 19.8286 13.6381 19.7714 13.5811 19.7714C13.524 19.7143 13.4099 20 13.2387 19.8857C13.1816 19.8286 13.1246 19.7714 13.0675 19.7143C12.9534 19.6 12.9534 19.5429 12.9534 19.4857L13.1816 19.0286C13.2387 18.9714 13.2387 18.9714 13.4669 19.0286C13.524 19.0286 13.5811 19.0286 13.6381 19.0857C13.8093 19.1429 13.6952 19.3143 13.7523 19.3714C13.8093 19.3714 13.8093 19.3714 13.8093 19.3143C13.8664 19.2571 13.8664 19.1429 13.9234 19.0857C13.9805 18.9143 14.0376 18.9143 14.0946 18.8C14.3229 18.6286 14.3229 18.6286 14.2658 18.5714ZM13.1246 18.9714L12.9534 19.2571C12.9534 19.3143 12.8963 19.3143 12.8963 19.3143C12.8392 19.3143 12.8392 19.2571 12.8392 19.2571L12.4969 18.8571C12.4969 18.8 12.4969 18.8 12.4969 18.8C12.4969 18.8 12.4969 18.8 12.5539 18.8L13.0675 18.8571C13.1246 18.8571 13.1246 18.8571 13.1816 18.8571C13.1816 18.9143 13.1816 18.9143 13.1246 18.9714Z" fill="#111111"/>
<path d="M34.238 18.4H34.0668H17.0619V27.7714C17.0619 31.9428 17.2902 35.3714 20.4857 38.5714C22.3688 40.4571 23.6242 41.3714 25.7356 42.8L25.8497 42.9143L26.0779 43.0857L26.3062 42.9143C26.9339 42.4 27.5045 41.9428 28.0752 41.5428C29.2164 40.7428 30.1865 40 31.4419 38.5143C34.4662 34.9143 34.9798 32.1714 34.9798 27.7714V18.4H34.238ZM30.8142 38.0571C29.6159 39.4857 28.7029 40.1714 27.6187 40.9143C27.048 41.3143 26.7056 41.5428 26.0209 42.1143C24.0237 40.7428 22.7683 39.8857 20.9993 38.0571C18.032 35.0286 17.8038 31.8857 17.8038 27.7714V19.1429H34.238V27.7714C34.238 32.1143 33.7244 34.6286 30.8142 38.0571Z" fill="#111111"/>
<path fill-rule="evenodd" clip-rule="evenodd" d="M44.0529 9.2L43.7676 8.68571L43.4823 9.54286L43.6534 9.88572L44.0529 9.2Z" fill="#111111"/>
<path fill-rule="evenodd" clip-rule="evenodd" d="M22.7112 5.77143C22.8824 6.45715 22.2547 6.28572 22.3118 6.51429C22.3118 6.62857 22.4259 6.62858 22.483 6.62858C22.6541 6.57143 22.8253 6.51429 23.1106 6.45715C23.453 6.4 23.5672 6.4 23.7954 6.34286C23.9095 6.28572 24.0237 6.28572 24.0237 6.17143C23.9666 6 23.453 6.28572 23.2818 5.6L22.7112 2.97143C22.6541 2.68572 22.7112 2.62858 22.8824 2.62858L23.2818 2.57143C23.7954 2.45715 23.7954 3.14286 23.9666 3.08572C24.0807 3.08572 23.9666 2.85715 23.9666 2.8L23.7954 2.28572C23.7954 2.22858 23.7383 2.17143 23.6813 2.17143C23.2248 2.28572 22.9395 2.34286 22.2547 2.51429C21.5699 2.68572 21.2276 2.68572 20.8281 2.8C20.7711 2.8 20.7711 2.91429 20.7711 2.97143L20.8852 3.77143C20.8852 3.82858 20.8852 4 20.9993 3.94286C21.2276 3.88572 20.8852 3.14286 21.4558 3.02858L21.8553 2.91429C22.0264 2.85715 22.0835 2.91429 22.1406 3.2L22.7112 5.77143Z" fill="#111111"/>
<path fill-rule="evenodd" clip-rule="evenodd" d="M16.4342 8C16.7766 8.62858 16.1489 8.62858 16.263 8.85715C16.3201 8.97143 16.3772 8.91429 16.4913 8.91429C16.6625 8.8 16.7766 8.74286 17.0619 8.57143C17.3472 8.4 17.5184 8.4 17.6896 8.28572C17.8038 8.22858 17.9179 8.17143 17.8608 8.05715C17.8038 7.88572 17.3472 8.34286 17.0049 7.71429L15.7495 5.31429C15.6354 5.08572 15.6354 5.02858 15.8065 4.91429L16.1489 4.74286C16.6054 4.45715 16.7766 5.14286 16.9478 5.02858C17.0619 4.97143 16.8907 4.8 16.8337 4.74286L16.5484 4.28572C16.4913 4.22858 16.4913 4.17143 16.4342 4.17143C16.0348 4.4 15.7495 4.57143 15.1218 4.85715C14.4941 5.2 14.2088 5.31429 13.8093 5.48572C13.7523 5.54286 13.8093 5.6 13.8093 5.65715L14.0946 6.4C14.0946 6.45715 14.1517 6.62858 14.2658 6.57143C14.437 6.45715 13.9805 5.82858 14.437 5.6L14.7794 5.42858C14.9506 5.31429 15.0077 5.31429 15.1218 5.6L16.4342 8Z" fill="#111111"/>
<path fill-rule="evenodd" clip-rule="evenodd" d="M23.5101 45.1429L22.9395 45.2L23.5671 45.8286L23.9666 45.7714L23.5101 45.1429Z" fill="#111111"/>
<path d="M68.9896 4.57143C69.2178 4.62857 69.389 4.62857 69.6173 4.62857C69.7885 4.62857 69.9597 4.57143 70.0738 4.57143C69.9597 6.05714 69.8455 8.8 69.7885 11.0857C69.7314 13.8857 68.1336 15.6 65.3375 15.6C62.2561 15.6 60.8295 14.1714 60.8295 11.0857C60.8295 10.1143 60.8866 9.37143 60.8866 8.62857C60.8866 6.91428 60.8295 5.48571 60.7725 4.57143C61.0007 4.62857 61.3431 4.62857 61.5713 4.62857C61.7996 4.62857 62.0278 4.57143 62.2561 4.57143C62.142 5.48571 62.0849 7.65714 62.0849 9.94286C62.0849 12.0571 62.0849 14.8571 65.5658 14.8571C68.9896 14.8571 68.9896 11.6571 68.9896 9.65714C69.0466 6.68571 69.0466 5.2 68.9896 4.57143Z" fill="#111111"/>
<path d="M82.913 15.6C80.5164 12.8 77.6632 9.77142 74.9812 6.91428C74.9812 7.48571 74.9242 8.45714 74.9242 10.1143C74.9242 11.4857 74.9812 14.8 75.0383 15.4286C74.8671 15.3714 74.6959 15.3714 74.4677 15.3714C74.2965 15.3714 74.0682 15.4286 73.897 15.4286C74.0111 14.6857 74.2394 10.6857 74.2394 8.62856C74.2394 6.62856 74.2394 5.14285 74.1823 4.39999H74.4106C76.9784 7.19999 80.4593 10.9714 82.3424 12.9143C82.3424 10.1143 82.3424 7.02856 82.2283 4.62857C82.3994 4.68571 82.5706 4.68571 82.7418 4.68571C82.913 4.68571 83.0842 4.62857 83.2554 4.62857C83.1413 5.54285 83.0271 8.68571 83.0271 9.88571C83.0271 11.4857 83.0842 14.9714 83.0842 15.6571H82.913V15.6Z" fill="#111111"/>
<path d="M87.4781 8.62857C87.4781 7.25714 87.421 5.94286 87.364 4.57143C87.6493 4.62857 87.8775 4.62857 88.1058 4.62857C88.334 4.62857 88.6194 4.57143 88.8476 4.57143C88.7905 5.94286 88.7335 7.31428 88.7335 8.62857V11.3143C88.7335 12.6857 88.7905 14 88.8476 15.3714C88.5623 15.3143 88.334 15.3143 88.1058 15.3143C87.8775 15.3143 87.5922 15.3714 87.364 15.3714C87.421 14 87.4781 12.6857 87.4781 11.3143V8.62857Z" fill="#111111"/>
<path d="M91.5296 4.57143C91.8149 4.62857 92.1002 4.62857 92.3285 4.62857C92.6138 4.62857 92.8991 4.57143 93.1274 4.57143C94.0404 7.37143 95.4099 10.6857 96.7224 13.8286C97.8636 11.3143 99.6326 6.62857 100.26 4.57143C100.431 4.62857 100.66 4.62857 100.831 4.62857C101.002 4.62857 101.23 4.57143 101.402 4.57143C99.7467 8.17143 98.2631 11.7714 96.8936 15.4286C96.7224 15.3714 96.5512 15.3714 96.38 15.3714C96.2088 15.3714 95.9806 15.4286 95.8664 15.4286C95.0105 12.8 93.0703 8.17143 91.5296 4.57143Z" fill="#111111"/>
<path d="M104.198 8.62857C104.198 7.25714 104.141 5.94286 104.083 4.57143C104.996 4.62857 105.967 4.62857 106.88 4.62857C107.793 4.62857 108.763 4.57143 109.676 4.57143C109.619 4.74286 109.619 4.91428 109.619 5.02857C109.619 5.2 109.619 5.31428 109.676 5.48571C108.363 5.37143 107.564 5.25714 105.567 5.25714C105.567 5.94286 105.51 6.45714 105.51 7.25714C105.51 8.05714 105.51 8.91428 105.51 9.31428C107.336 9.31428 108.42 9.25714 109.333 9.14286C109.276 9.31428 109.276 9.48571 109.276 9.65714C109.276 9.82857 109.276 9.94286 109.333 10.1143C108.249 10 106.252 10 105.51 10C105.51 10.4 105.51 10.7429 105.51 12.2857C105.51 13.4857 105.51 14.2286 105.567 14.6286C106.937 14.6286 108.82 14.6286 109.79 14.4C109.733 14.5714 109.733 14.7429 109.733 14.9143C109.733 15.0286 109.733 15.2 109.79 15.3714C108.877 15.3143 107.907 15.3143 106.994 15.3143C106.024 15.3143 105.111 15.3714 104.141 15.3714C104.198 14 104.255 12.6286 104.255 11.3143V8.62857H104.198Z" fill="#111111"/>
<path d="M113.042 8.62857C113.042 7.25714 112.985 5.94286 112.928 4.57143C113.499 4.62857 114.127 4.62857 114.697 4.62857C115.268 4.62857 115.896 4.57143 116.466 4.57143C118.235 4.57143 119.719 5.2 119.719 7.02857C119.719 9.02857 117.722 9.88571 116.523 10C117.265 10.9714 119.89 14.3429 120.803 15.3714C120.518 15.3143 120.175 15.3143 119.833 15.3143C119.548 15.3143 119.205 15.3714 118.92 15.3714C118.292 14.4 116.181 11.5429 114.869 10.1714H114.298V11.3143C114.298 12.6857 114.355 14 114.412 15.3714C114.127 15.3143 113.898 15.3143 113.67 15.3143C113.442 15.3143 113.157 15.3714 112.928 15.3714C112.985 14 113.042 12.6857 113.042 11.3143V8.62857ZM114.298 9.54286C114.583 9.6 114.926 9.6 115.325 9.6C116.637 9.6 118.292 9.08571 118.292 7.2C118.292 5.54286 116.923 5.14286 115.839 5.14286C115.097 5.14286 114.64 5.2 114.298 5.2C114.241 6.34286 114.184 7.48571 114.184 8.62857V9.54286H114.298Z" fill="#111111"/>
<path d="M123.314 13.3143C123.656 14.0571 124.455 14.9714 125.768 14.9714C127.137 14.9714 127.993 13.9428 127.993 12.6857C127.993 9.77142 123.029 11.0286 123.029 7.37142C123.029 5.59999 124.341 4.39999 126.452 4.39999C127.422 4.39999 128.164 4.62857 128.792 5.14285C128.621 5.48571 128.507 5.88571 128.392 6.45714H128.221C127.993 5.88571 127.537 4.97142 126.338 4.97142C125.14 4.97142 124.341 5.77142 124.341 6.91428C124.341 9.82856 129.248 8.62856 129.248 12.1143C129.248 14.0571 127.822 15.6571 125.425 15.6571C124.113 15.6571 123.371 15.2 122.857 14.7428C123.029 14.2857 123.086 13.9428 123.143 13.3714H123.314V13.3143Z" fill="#111111"/>
<path d="M132.786 8.62857C132.786 7.25714 132.729 5.94286 132.672 4.57143C132.958 4.62857 133.186 4.62857 133.414 4.62857C133.642 4.62857 133.928 4.57143 134.156 4.57143C134.099 5.94286 134.042 7.31428 134.042 8.62857V11.3143C134.042 12.6857 134.099 14 134.156 15.3714C133.871 15.3143 133.642 15.3143 133.414 15.3143C133.186 15.3143 132.9 15.3714 132.672 15.3714C132.729 14 132.786 12.6857 132.786 11.3143V8.62857Z" fill="#111111"/>
<path d="M60.8295 24.6857C60.8295 23.3143 60.7724 22 60.7154 20.6286C61.2289 20.6857 61.7425 20.6857 62.2561 20.6857C62.7696 20.6857 63.7397 20.6286 64.1962 20.6286C65.1093 20.6286 67.62 20.6857 67.62 23.2571C67.62 26 64.881 26.5714 63.3973 26.5714C62.9408 26.5714 62.5414 26.5714 62.142 26.5143V27.3714C62.142 28.7429 62.199 30.0571 62.2561 31.4286C61.9708 31.3714 61.7425 31.3714 61.5143 31.3714C61.286 31.3714 61.0007 31.4286 60.7724 31.4286C60.8295 30.0571 60.8866 28.7429 60.8866 27.3714V24.6857H60.8295ZM62.142 25.8286C62.4843 25.8857 62.8838 25.9429 63.2832 25.9429C64.5386 25.9429 66.1935 25.4286 66.1935 23.3143C66.1935 21.5429 65.1663 21.1429 63.5685 21.1429H62.142V25.8286Z" fill="#111111"/>
<path d="M75.2095 20.4C78.6903 20.4 81.087 22.4571 81.087 26C81.087 29.5429 78.6903 31.6 75.2095 31.6C71.7857 31.6 69.332 29.5429 69.332 26C69.389 22.4571 71.7857 20.4 75.2095 20.4ZM75.2095 20.9714C72.7558 20.9714 70.8727 22.5143 70.8727 26C70.8727 29.4857 72.7558 31.0286 75.2095 31.0286C77.6632 31.0286 79.5463 29.4857 79.5463 26C79.5463 22.5143 77.7203 20.9714 75.2095 20.9714Z" fill="#111111"/>
<path d="M83.7119 24.6857C83.7119 23.3143 83.6548 22 83.5978 20.6286C83.8831 20.6857 84.1113 20.6857 84.3396 20.6857C84.5678 20.6857 84.8532 20.6286 85.0814 20.6286C85.0244 22 84.9673 23.3714 84.9673 24.6857C84.9673 27.3143 85.0244 29.2 85.0244 30.7429C86.508 30.7429 87.7634 30.7429 89.3612 30.5143C89.3041 30.6857 89.3041 30.8571 89.3041 30.9714C89.3041 31.1429 89.3612 31.3143 89.3612 31.4286C88.3911 31.3714 87.421 31.3714 86.4509 31.3714C85.4809 31.3714 84.5108 31.4286 83.5407 31.4286C83.5978 30.0571 83.6548 28.7429 83.6548 27.3714V24.6857H83.7119Z" fill="#111111"/>
<path d="M92.2144 24.6857C92.2144 23.3143 92.1573 22 92.1002 20.6286C92.3855 20.6857 92.6138 20.6857 92.842 20.6857C93.0703 20.6857 93.3556 20.6286 93.5839 20.6286C93.5268 22 93.4697 23.3714 93.4697 24.6857V27.3714C93.4697 28.7429 93.5268 30.0571 93.5839 31.4286C93.2986 31.3714 93.0703 31.3714 92.842 31.3714C92.6138 31.3714 92.3285 31.4286 92.1002 31.4286C92.1573 30.0571 92.2144 28.7429 92.2144 27.3714V24.6857Z" fill="#111111"/>
<path d="M99.5755 24.6857C99.5755 23.6 99.5755 22.5143 99.5184 21.4286C98.4342 21.4286 97.0647 21.4857 96.1517 21.6C96.2088 21.4286 96.2088 21.2571 96.2088 21.0857C96.2088 20.9143 96.1517 20.8 96.1517 20.5714C97.5212 20.6286 98.8337 20.6286 100.203 20.6286C101.573 20.6286 102.885 20.5714 104.255 20.5714C104.198 20.7429 104.198 20.9143 104.198 21.0857C104.198 21.2571 104.255 21.4286 104.255 21.6C103.399 21.4857 101.972 21.4286 100.888 21.4286C100.831 22.5143 100.831 23.6 100.831 24.6857V27.3714C100.831 28.7429 100.888 30.0571 100.945 31.4286C100.66 31.3714 100.431 31.3714 100.203 31.3714C99.975 31.3714 99.6896 31.4286 99.4614 31.4286C99.5185 30.0571 99.5755 28.7429 99.5755 27.3714V24.6857Z" fill="#111111"/>
<path d="M123.371 30.7429C122.971 31.0857 121.659 31.6572 120.118 31.6572C116.809 31.6572 114.412 29.6 114.412 26.0572C114.412 22.5143 116.809 20.4572 120.289 20.4572C121.659 20.4572 122.857 20.8 123.713 21.2C123.542 21.4857 123.428 22.1143 123.371 22.4L123.257 22.4572C122.8 22 121.773 21.0857 120.289 21.0857C117.836 21.0857 115.953 22.6286 115.953 26.1143C115.953 29.6 117.836 31.1429 120.289 31.1429C121.773 31.1429 122.857 30.2857 123.485 29.8286L123.542 29.8857L123.371 30.7429Z" fill="#111111"/>
<path d="M135.24 31.6C132.843 28.8 129.99 25.7714 127.308 22.9143C127.308 23.4857 127.251 24.4571 127.251 26.1143C127.251 27.4857 127.308 30.8 127.365 31.4286C127.194 31.3714 127.023 31.3714 126.795 31.3714C126.624 31.3714 126.395 31.3714 126.224 31.4286C126.338 30.6857 126.566 26.6857 126.566 24.6286C126.566 22.6286 126.566 21.1429 126.509 20.4H126.738C129.305 23.2 132.786 26.9714 134.669 28.9143C134.669 26.1143 134.669 23.0286 134.555 20.6286C134.727 20.6857 134.898 20.6857 135.069 20.6857C135.24 20.6857 135.411 20.6286 135.582 20.6286C135.468 21.5428 135.354 24.6857 135.354 25.8857C135.354 27.4857 135.411 30.9714 135.411 31.6571H135.24V31.6Z" fill="#111111"/>
<path d="M139.063 24.6857C139.063 23.3143 139.006 22 138.949 20.6286C139.235 20.6857 139.463 20.6857 139.691 20.6857C139.919 20.6857 140.205 20.6286 140.433 20.6286C140.376 22 140.319 23.3714 140.319 24.6857V27.3714C140.319 28.7429 140.376 30.0571 140.433 31.4286C140.148 31.3714 139.919 31.3714 139.691 31.3714C139.463 31.3714 139.177 31.4286 138.949 31.4286C139.006 30.0571 139.063 28.7429 139.063 27.3714V24.6857Z" fill="#111111"/>
<path d="M152.245 30.7429C151.846 31.0857 150.533 31.6572 148.992 31.6572C145.683 31.6572 143.286 29.6 143.286 26.0572C143.286 22.5143 145.683 20.4572 149.164 20.4572C150.533 20.4572 151.731 20.8 152.587 21.2C152.416 21.4857 152.302 22.1143 152.245 22.4L152.131 22.4572C151.674 22 150.647 21.0857 149.164 21.0857C146.71 21.0857 144.827 22.6286 144.827 26.1143C144.827 29.6 146.71 31.1429 149.164 31.1429C150.647 31.1429 151.731 30.2857 152.359 29.8286L152.416 29.8857L152.245 30.7429Z" fill="#111111"/>
<path d="M61.0007 40.6857C61.0007 39.3143 60.9436 37.9429 60.8866 36.6286C61.6854 36.6857 62.4843 36.6857 63.2262 36.6857C64.025 36.6857 64.8239 36.6286 65.5658 36.6286C69.2178 36.6286 70.7585 38.5714 70.7585 41.8286C70.7585 46 67.5059 47.4857 65.0522 47.4857C64.3674 47.4857 63.6827 47.4286 62.9408 47.4286C62.2561 47.4286 61.5713 47.4857 60.8295 47.4857C60.8866 46.1143 60.9436 44.8 60.9436 43.4286V40.6857H61.0007ZM62.2561 43.3714C62.2561 44.4571 62.3131 45.6 62.3702 46.6857C62.8267 46.8 63.6256 46.8571 64.4245 46.8571C66.707 46.8571 69.2178 45.9429 69.2178 41.8286C69.2178 38.1714 67.3347 37.3143 64.7669 37.3143C63.8539 37.3143 62.9979 37.3714 62.3702 37.4857C62.3131 38.5143 62.2561 39.6 62.2561 40.7429V43.3714Z" fill="#111111"/>
<path d="M72.6987 40.6286C72.6987 39.2572 72.6416 37.8857 72.5846 36.5714C73.5546 36.6286 74.4676 36.6286 75.3807 36.6286C76.3507 36.6286 77.2637 36.5714 78.1767 36.5714C78.1197 36.7429 78.1197 36.9143 78.1197 37.0286C78.1197 37.2 78.1197 37.3714 78.1767 37.4857C76.8643 37.3714 76.0654 37.2572 74.0682 37.2572C74.0682 37.9429 74.0111 38.4572 74.0111 39.2572C74.0111 40.0572 74.0111 40.9143 74.0111 41.3143C75.8372 41.3143 76.9214 41.2572 77.8344 41.1429C77.7773 41.3143 77.7773 41.4857 77.7773 41.6572C77.7773 41.8286 77.7773 42 77.8344 42.1143C76.7502 42 74.753 41.9429 74.0111 41.9429C74.0111 42.3429 74.0111 42.6857 74.0111 44.2286C74.0111 45.4286 74.0111 46.1714 74.0682 46.5714C75.4377 46.5714 77.3208 46.5714 78.2909 46.3429C78.2338 46.4571 78.2338 46.6857 78.2338 46.8C78.2338 46.9714 78.2338 47.1429 78.2909 47.2571C77.3779 47.2 76.4078 47.2 75.4948 47.2C74.5247 47.2 73.6117 47.2571 72.6416 47.2571C72.6987 45.8857 72.7557 44.5143 72.7557 43.2V40.6286H72.6987Z" fill="#111111"/>
<path d="M88.4482 36.6286C88.7335 36.6857 89.0188 36.6857 89.2471 36.6857C89.5324 36.6857 89.8177 36.6286 90.0459 36.6286C90.959 39.4286 92.2714 42.7429 93.6409 45.8857C94.7822 43.3714 96.5511 38.6857 97.1788 36.6286C97.35 36.6857 97.5783 36.6857 97.7495 36.6857C97.9207 36.6857 98.1489 36.6286 98.3201 36.6286C96.6653 40.2286 95.1816 43.8286 93.8121 47.4857C93.6409 47.4286 93.4697 47.4286 93.2985 47.4286C93.1274 47.4286 92.8991 47.4286 92.785 47.4857C91.872 44.8571 89.9318 40.2286 88.4482 36.6286Z" fill="#111111"/>
<path d="M110.303 40.6857C110.303 39.3143 110.246 37.9429 110.189 36.6286C110.475 36.6857 110.703 36.6857 110.931 36.6857C111.159 36.6857 111.445 36.6286 111.673 36.6286C111.616 38 111.559 39.3714 111.559 40.6857C111.559 43.3143 111.616 45.2 111.616 46.7429C113.1 46.7429 114.355 46.7429 115.953 46.5143C115.896 46.6857 115.896 46.8 115.896 46.9714C115.896 47.1428 115.953 47.3143 115.953 47.4286C114.983 47.3714 114.013 47.3714 113.042 47.3714C112.072 47.3714 111.102 47.4286 110.132 47.4286C110.189 46.0571 110.246 44.7429 110.246 43.3714V40.6857H110.303Z" fill="#111111"/>
<path d="M135.868 47.6572C133.471 44.8572 130.618 41.8286 127.936 38.9714C127.936 39.5429 127.879 40.5143 127.879 42.1714C127.879 43.5429 127.936 46.8572 127.993 47.4857C127.822 47.4286 127.651 47.4286 127.422 47.4286C127.251 47.4286 127.023 47.4857 126.852 47.4857C126.966 46.7429 127.194 42.7429 127.194 40.6857C127.194 38.6857 127.194 37.2 127.137 36.4572H127.365C129.933 39.2572 133.414 43.0286 135.297 44.9714C135.297 42.1714 135.297 39.0857 135.183 36.6857C135.354 36.7429 135.525 36.7429 135.697 36.7429C135.868 36.7429 136.039 36.6857 136.21 36.6857C136.096 37.6 135.982 40.7429 135.982 41.9429C135.982 43.5429 136.039 47.0286 136.039 47.7143H135.868V47.6572Z" fill="#111111"/>
<path d="M147.566 46.7429C147.166 47.0286 145.854 47.6571 144.313 47.6571C141.003 47.6571 138.607 45.6 138.607 42.0571C138.607 38.5143 141.003 36.4572 144.484 36.4572C145.854 36.4572 147.052 36.8 147.908 37.2C147.737 37.4857 147.623 38.1143 147.566 38.4L147.452 38.4572C146.995 37.9429 145.968 37.0857 144.484 37.0857C142.031 37.0857 140.148 38.6286 140.148 42.1143C140.148 45.6 142.031 47.1429 144.484 47.1429C145.968 47.1429 147.052 46.2857 147.68 45.8286L147.737 45.8857L147.566 46.7429Z" fill="#111111"/>
<path d="M150.305 40.6857C150.305 39.3143 150.248 37.9429 150.191 36.6286C150.476 36.6857 150.704 36.6857 150.933 36.6857C151.161 36.6857 151.446 36.6286 151.674 36.6286C151.617 38 151.56 39.3714 151.56 40.6857V43.3714C151.56 44.7429 151.617 46.0571 151.674 47.4286C151.389 47.3714 151.161 47.3714 150.933 47.3714C150.704 47.3714 150.419 47.4286 150.191 47.4286C150.248 46.0571 150.305 44.7429 150.305 43.3714V40.6857Z" fill="#111111"/>
<path d="M156.354 30.0571C156.354 29.3714 156.924 28.8 157.609 28.8C158.294 28.8 158.864 29.3714 158.864 30.0571C158.864 30.7429 158.294 31.3143 157.609 31.3143C156.924 31.3143 156.354 30.7429 156.354 30.0571Z" fill="#111111"/>
<path d="M160.633 27.0857L158.693 22.4L156.696 27.0857C156.011 28.6857 155.441 30.2857 155.155 31.3143C154.927 31.2571 154.756 31.2571 154.585 31.2571C154.413 31.2571 154.185 31.3143 154.014 31.3143C155.669 27.6571 157.324 24 158.921 20.2857H159.207C160.747 23.9429 163.087 29.6571 163.943 31.3143C163.658 31.2571 163.372 31.2571 163.144 31.2571C162.859 31.2571 162.573 31.3143 162.288 31.3143C161.946 30.2286 161.204 28.4571 160.633 27.0857Z" fill="#111111"/>
<path d="M156.411 46.1143C156.411 45.4286 156.981 44.8571 157.666 44.8571C158.351 44.8571 158.921 45.4286 158.921 46.1143C158.921 46.8 158.351 47.3714 157.666 47.3714C156.981 47.3143 156.411 46.8 156.411 46.1143Z" fill="#111111"/>
<path d="M160.69 43.0857L158.75 38.4L156.753 43.0857C156.068 44.6857 155.498 46.2857 155.212 47.3143C154.984 47.2572 154.813 47.2572 154.642 47.2572C154.47 47.2572 154.242 47.3143 154.071 47.3143C155.726 43.6572 157.381 40 158.978 36.2857H159.264C160.804 39.9429 163.144 45.6572 164 47.3143C163.715 47.2572 163.429 47.2572 163.144 47.2572C162.859 47.2572 162.573 47.3143 162.288 47.3143C162.003 46.2286 161.204 44.5143 160.69 43.0857Z" fill="#111111"/>
<path d="M100.66 46.1143C100.66 45.4286 101.23 44.8571 101.915 44.8571C102.6 44.8571 103.171 45.4286 103.171 46.1143C103.171 46.8 102.6 47.3714 101.915 47.3714C101.23 47.3143 100.66 46.8 100.66 46.1143Z" fill="#111111"/>
<path d="M104.939 43.0857L102.999 38.4L101.002 43.0857C100.317 44.6857 99.7467 46.2857 99.4614 47.3143C99.2332 47.2572 99.062 47.2572 98.8908 47.2572C98.7196 47.2572 98.4913 47.3143 98.3201 47.3143C99.975 43.6572 101.63 40 103.228 36.2857H103.513C105.054 39.9429 107.393 45.6572 108.249 47.3143C107.964 47.2572 107.679 47.2572 107.393 47.2572C107.108 47.2572 106.823 47.3143 106.537 47.3143C106.252 46.2286 105.51 44.5143 104.939 43.0857Z" fill="#111111"/>
<path d="M140.262 8.8C140.262 7.71429 140.262 6.62857 140.205 5.54286C139.12 5.54286 137.751 5.6 136.838 5.71429C136.895 5.54286 136.895 5.37143 136.895 5.2C136.895 5.02857 136.838 4.91429 136.838 4.68571C138.207 4.74286 139.52 4.74286 140.889 4.74286C142.259 4.74286 143.571 4.68571 144.941 4.68571C144.884 4.85714 144.884 5.02857 144.884 5.2C144.884 5.37143 144.941 5.54286 144.941 5.71429C144.085 5.6 142.658 5.54286 141.574 5.54286C141.517 6.62857 141.517 7.71429 141.517 8.8V11.4857C141.517 12.8571 141.574 14.1714 141.631 15.5429C141.346 15.4857 141.118 15.4857 140.889 15.4857C140.661 15.4857 140.376 15.5429 140.148 15.5429C140.205 14.1714 140.262 12.8 140.262 11.4857V8.8Z" fill="#111111"/>
<path d="M159.207 8.8C159.207 7.71429 159.207 6.62857 159.15 5.54286C158.065 5.54286 156.696 5.6 155.783 5.71429C155.84 5.54286 155.84 5.37143 155.84 5.2C155.84 5.02857 155.783 4.91429 155.783 4.68571C157.152 4.74286 158.465 4.74286 159.834 4.74286C161.204 4.74286 162.516 4.68571 163.886 4.68571C163.829 4.85714 163.829 5.02857 163.829 5.2C163.829 5.37143 163.886 5.54286 163.886 5.71429C163.03 5.6 161.603 5.54286 160.519 5.54286C160.462 6.62857 160.462 7.71429 160.462 8.8V11.4857C160.462 12.8571 160.519 14.1714 160.576 15.5429C160.291 15.4857 160.063 15.4857 159.834 15.4857C159.606 15.4857 159.321 15.5429 159.093 15.5429C159.15 14.1714 159.207 12.8 159.207 11.4857V8.8Z" fill="#111111"/>
<path fill-rule="evenodd" clip-rule="evenodd" d="M122.572 35.7143L120.575 33.7143C120.404 33.5429 120.175 33.3143 119.947 33.1429C119.89 33.0857 119.833 33.0857 119.719 33.0286C119.434 32.9714 119.148 33.0857 119.091 33.3714C119.034 33.5429 119.034 33.6571 119.091 33.7714C119.205 33.9429 119.319 34 119.491 34.1143L122.001 35.6571H122.572V35.7143ZM119.89 37.3714H121.088L122.686 37.4286C123.143 37.4857 123.656 37.4857 124.113 37.6C124.113 37.4286 124.056 37.2571 124.056 37.1429C124.056 36.9714 124.113 36.8571 124.113 36.6857H118.463V47.4857H124.227C124.227 47.3143 124.17 47.1429 124.17 47.0286C124.17 46.8571 124.227 46.7429 124.227 46.5714C123.713 46.6286 123.257 46.6857 122.743 46.7429C121.773 46.8 120.86 46.8571 119.89 46.8V42.1714H122.344C122.8 42.1714 123.257 42.2286 123.77 42.2286C123.77 42.0571 123.713 41.8857 123.713 41.7714C123.713 41.6 123.77 41.4857 123.77 41.3714C123.314 41.3714 122.857 41.4286 122.344 41.4286H119.89V37.3714Z" fill="#111111"/>
<path fill-rule="evenodd" clip-rule="evenodd" d="M110.589 19.7714L108.592 17.7714C108.42 17.6 108.192 17.3714 107.964 17.2C107.907 17.1429 107.85 17.1429 107.736 17.0857C107.45 17.0286 107.165 17.1429 107.108 17.4286C107.051 17.6 107.051 17.7143 107.108 17.8857C107.222 18.0571 107.336 18.1143 107.507 18.2286L110.018 19.7714H110.589ZM107.964 21.4286H109.162L110.76 21.4857C111.216 21.4857 111.73 21.5429 112.187 21.6571C112.187 21.4857 112.129 21.3143 112.129 21.2C112.129 21.0286 112.187 20.9143 112.187 20.7429H106.537V31.4286H112.244C112.244 31.2571 112.187 31.0857 112.187 30.9714C112.187 30.8 112.244 30.6857 112.244 30.5143C111.73 30.5714 111.273 30.6286 110.76 30.6286C109.79 30.6857 108.877 30.7429 107.907 30.6857V26.0571H110.36C110.817 26.0571 111.331 26.1143 111.787 26.1143C111.787 25.9429 111.73 25.7714 111.73 25.6571C111.73 25.4857 111.787 25.3714 111.787 25.2571C111.331 25.2571 110.874 25.3143 110.36 25.3143H107.907V21.4286H107.964Z" fill="#111111"/>
<path d="M147.908 14.1143C147.908 13.4286 148.479 12.8571 149.164 12.8571C149.848 12.8571 150.419 13.4286 150.419 14.1143C150.419 14.8 149.848 15.3714 149.164 15.3714C148.422 15.3143 147.908 14.8 147.908 14.1143ZM150.191 4.39999H150.533L155.041 14.8571L155.326 15.4286C155.041 15.3714 154.756 15.3714 154.527 15.3714C154.242 15.3714 153.957 15.3714 153.672 15.4286L153.557 14.9714L152.816 13.0857L152.017 11.2L150.019 6.45714L147.965 11.2C147.395 12.5714 146.824 14 146.424 15.4286C146.253 15.3714 146.082 15.3714 145.854 15.3714C145.683 15.3714 145.454 15.3714 145.283 15.4286L150.191 4.39999Z" fill="#111111"/>
</svg>
